<svg width="20" height="20" viewBox="0 0 20 20" fill="none" xmlns="http://www.w3.org/2000/svg">
<path d="M10.8334 7.49935C10.8334 7.03911 10.4603 6.66602 10.0001 6.66602C9.53984 6.66602 9.16675 7.03911 9.16675 7.49935V9.16602H7.50008C7.03984 9.16602 6.66675 9.53911 6.66675 9.99935C6.66675 10.4596 7.03984 10.8327 7.50008 10.8327H9.16675V12.4993C9.16675 12.9596 9.53984 13.3327 10.0001 13.3327C10.4603 13.3327 10.8334 12.9596 10.8334 12.4993V10.8327H12.5001C12.9603 10.8327 13.3334 10.4596 13.3334 9.99935C13.3334 9.53911 12.9603 9.16602 12.5001 9.16602H10.8334V7.49935Z" fill="white"/>
<path fill-rule="evenodd" clip-rule="evenodd" d="M10.0001 1.66602C5.39771 1.66602 1.66675 5.39698 1.66675 9.99935C1.66675 14.6017 5.39771 18.3327 10.0001 18.3327C14.6025 18.3327 18.3334 14.6017 18.3334 9.99935C18.3334 5.39698 14.6025 1.66602 10.0001 1.66602ZM3.33341 9.99935C3.33341 6.31745 6.31818 3.33268 10.0001 3.33268C13.682 3.33268 16.6667 6.31745 16.6667 9.99935C16.6667 13.6812 13.682 16.666 10.0001 16.666C6.31818 16.666 3.33341 13.6812 3.33341 9.99935Z" fill="white"/>
</svg>
