<svg width="14" height="14" viewBox="0 0 14 14" fill="none" xmlns="http://www.w3.org/2000/svg">
<path fill-rule="evenodd" clip-rule="evenodd" d="M6.99995 0.515137C7.1774 0.515137 7.34155 0.609187 7.43129 0.762269L13.598 11.2814C13.7236 11.4957 13.6729 11.7697 13.4789 11.9248L11.6647 13.3756C11.4932 13.5128 11.2523 13.522 11.0709 13.3983L7.6117 11.0408C7.43041 10.9173 7.35084 10.6899 7.41548 10.4803C7.48013 10.2707 7.67389 10.1276 7.89328 10.1276H9.03864L7.00064 6.55879L4.96908 10.1276H6.09412C6.31335 10.1276 6.50701 10.2705 6.57179 10.4799C6.63657 10.6893 6.55735 10.9166 6.3764 11.0403L2.92973 13.3978C2.74822 13.522 2.50691 13.513 2.33517 13.3756L0.521001 11.9248C0.327037 11.7697 0.276333 11.4957 0.401938 11.2814L6.5686 0.762269C6.65835 0.609187 6.8225 0.515137 6.99995 0.515137ZM1.4834 11.414L2.67067 12.3635L4.47747 11.1276H4.10912C3.93103 11.1276 3.76638 11.0329 3.67687 10.879C3.58735 10.725 3.58648 10.535 3.67459 10.3803L6.56542 5.30195C6.65427 5.14586 6.82001 5.04943 6.99961 5.0493C7.17921 5.04918 7.34508 5.14539 7.43414 5.30136L10.3341 10.3797C10.4225 10.5344 10.4218 10.7245 10.3324 10.8787C10.2429 11.0328 10.0782 11.1276 9.89995 11.1276H9.51476L11.3287 12.3639L12.5165 11.414L6.99995 2.0038L1.4834 11.414Z" fill="white"/>
</svg>
