<svg width="18" height="18" viewBox="0 0 18 18" fill="none" xmlns="http://www.w3.org/2000/svg">
<path d="M1.5 6.75095H3.75V15.751H1.5C1.08579 15.751 0.75 15.4152 0.75 15.001V7.50095C0.75 7.08674 1.08579 6.75095 1.5 6.75095ZM5.46967 5.78129L10.2701 0.980934C10.402 0.848971 10.6109 0.834129 10.7602 0.946096L11.3996 1.42568C11.7632 1.69832 11.927 2.16287 11.8148 2.60322L10.9499 6.00095H15.75C16.5785 6.00095 17.25 6.67253 17.25 7.50095V9.0792C17.25 9.27518 17.2116 9.4692 17.1371 9.65033L14.8162 15.2865C14.7005 15.5675 14.4266 15.751 14.1227 15.751H6C5.58579 15.751 5.25 15.4152 5.25 15.001V6.31162C5.25 6.1127 5.32902 5.92194 5.46967 5.78129Z" fill="white"/>
</svg>
