<svg width="15" height="150" viewBox="0 0 15 150" fill="none" xmlns="http://www.w3.org/2000/svg">
<path d="M2.27315 0.0138753C2.26957 0.82009 2.35258 1.67631 2.34899 2.48252C2.49681 19.4265 3.00443 36.3472 4.18168 53.3082C5.85245 79.2143 7.96962 105.147 11.626 130.814C12.3241 135.605 13.0721 140.309 13.8202 145.014C13.9532 145.783 14.0496 146.416 14.096 147.136C14.2157 148.129 14.0755 148.972 13.0693 149.314C12.063 149.657 11.297 148.984 10.9408 148.201C10.3748 147.181 9.85874 146.075 9.61596 144.896C8.8741 141.581 8.09565 138.129 7.71359 134.791C2.99501 96.9636 -0.024534 59.1936 0.603992 21.1049C0.682711 14.5686 1.20783 8.05907 1.50976 1.53612C1.58655 1.0031 1.66335 0.470084 1.69015 0.0236723C1.82675 -0.0129287 2.04995 0.000477265 2.27315 0.0138753Z" fill="#FF5733"/>
</svg>
