<svg width="128" height="22" viewBox="0 0 128 22" fill="none" xmlns="http://www.w3.org/2000/svg">
<path d="M17.6602 14.6543C17.6875 15.6204 17.5326 16.4499 17.1953 17.1426C16.8581 17.8353 16.3978 18.4186 15.8145 18.8926C15.2402 19.3574 14.5658 19.7311 13.791 20.0137C13.0254 20.3053 12.2188 20.5241 11.3711 20.6699C10.5326 20.8249 9.6849 20.9251 8.82812 20.9707C7.97135 21.0163 7.16927 21.0391 6.42188 21.0391C5.66536 21.0391 4.82227 21.0163 3.89258 20.9707C2.97201 20.9342 1.96029 20.8704 0.857422 20.7793L0.269531 0.873047C1.21745 0.69987 2.13802 0.572266 3.03125 0.490234C3.92448 0.399089 4.72201 0.335286 5.42383 0.298828C6.24414 0.26237 7.01888 0.248698 7.74805 0.257812C8.44076 0.276042 9.13802 0.317057 9.83984 0.380859C10.5417 0.444661 11.2116 0.554036 11.8496 0.708984C12.4967 0.854818 13.0983 1.0599 13.6543 1.32422C14.2103 1.58854 14.6934 1.92578 15.1035 2.33594C15.5137 2.74609 15.8372 3.24284 16.0742 3.82617C16.3112 4.40039 16.4297 5.07943 16.4297 5.86328C16.4297 6.88411 16.2428 7.75911 15.8691 8.48828C15.4954 9.20833 15.0078 9.80534 14.4062 10.2793C14.7891 10.4069 15.1309 10.5664 15.4316 10.7578C15.7324 10.9401 15.9922 11.1452 16.2109 11.373C16.4388 11.6009 16.6302 11.8424 16.7852 12.0977C16.9492 12.3438 17.0859 12.5898 17.1953 12.8359C17.4414 13.401 17.5964 14.0072 17.6602 14.6543ZM7.80273 2.74609C7.37435 2.74609 6.90951 2.75977 6.4082 2.78711C5.97982 2.80534 5.48763 2.8418 4.93164 2.89648C4.38477 2.95117 3.80143 3.02409 3.18164 3.11523L3.40039 10.0879C4.18424 10.0697 4.89518 10.0469 5.5332 10.0195C6.18034 9.98307 6.73633 9.95117 7.20117 9.92383C7.74805 9.88737 8.23568 9.85091 8.66406 9.81445C9.33854 9.77799 9.98112 9.66862 10.5918 9.48633C11.2116 9.29492 11.7493 9.03516 12.2051 8.70703C12.6608 8.37891 13.0117 7.97786 13.2578 7.50391C13.513 7.02995 13.6087 6.48307 13.5449 5.86328C13.4902 5.40755 13.3626 5.01107 13.1621 4.67383C12.9707 4.32747 12.7246 4.03581 12.4238 3.79883C12.1322 3.55273 11.7949 3.35677 11.4121 3.21094C11.0384 3.05599 10.6465 2.94206 10.2363 2.86914C9.83529 2.78711 9.42513 2.74154 9.00586 2.73242C8.58659 2.71419 8.18555 2.71875 7.80273 2.74609ZM10.4004 12.0156C10.1725 12.0339 9.97201 12.0521 9.79883 12.0703C9.63477 12.0794 9.48893 12.0885 9.36133 12.0977C9.24284 12.1068 9.13346 12.1159 9.0332 12.125C8.94206 12.1341 8.85547 12.1387 8.77344 12.1387C8.27214 12.1842 7.73438 12.2253 7.16016 12.2617C6.66797 12.2982 6.10286 12.3392 5.46484 12.3848C4.82682 12.4212 4.16602 12.4577 3.48242 12.4941L3.6875 18.5508C3.94271 18.569 4.19336 18.5781 4.43945 18.5781C4.68555 18.5781 4.92708 18.5781 5.16406 18.5781C5.59245 18.5781 6.13021 18.5781 6.77734 18.5781C7.43359 18.569 8.11719 18.5371 8.82812 18.4824C9.54818 18.4186 10.2637 18.3138 10.9746 18.168C11.6947 18.013 12.3372 17.7943 12.9023 17.5117C13.4766 17.2201 13.9323 16.8464 14.2695 16.3906C14.6159 15.9349 14.7754 15.3652 14.748 14.6816C14.666 14.1895 14.4564 13.7474 14.1191 13.3555C13.9733 13.1914 13.791 13.0273 13.5723 12.8633C13.3626 12.6992 13.1074 12.5579 12.8066 12.4395C12.5059 12.3118 12.1549 12.2116 11.7539 12.1387C11.362 12.0566 10.9108 12.0156 10.4004 12.0156ZM34.4355 13.3691C34.4355 14.5176 34.2441 15.5794 33.8613 16.5547C33.4785 17.5299 32.9544 18.3776 32.2891 19.0977C31.6237 19.8177 30.8444 20.3783 29.9512 20.7793C29.0579 21.1895 28.1055 21.3945 27.0938 21.3945C26.082 21.3945 25.1341 21.2031 24.25 20.8203C23.3659 20.4375 22.5911 19.8952 21.9258 19.1934C21.2695 18.4824 20.75 17.6348 20.3672 16.6504C19.9844 15.666 19.793 14.5723 19.793 13.3691C19.793 12.1569 19.9844 11.0586 20.3672 10.0742C20.75 9.08073 21.2695 8.23307 21.9258 7.53125C22.5911 6.82943 23.3659 6.28711 24.25 5.9043C25.1341 5.52148 26.082 5.33008 27.0938 5.33008C28.1055 5.33008 29.0579 5.53516 29.9512 5.94531C30.8444 6.34635 31.6237 6.9069 32.2891 7.62695C32.9544 8.33789 33.4785 9.18555 33.8613 10.1699C34.2441 11.1452 34.4355 12.2116 34.4355 13.3691ZM31.5508 13.3418C31.5508 12.6855 31.4688 12.0247 31.3047 11.3594C31.1406 10.6849 30.8809 10.0833 30.5254 9.55469C30.1699 9.01693 29.7096 8.57943 29.1445 8.24219C28.5794 7.90495 27.8958 7.73633 27.0938 7.73633C26.319 7.73633 25.6536 7.90495 25.0977 8.24219C24.5417 8.57943 24.0859 9.01693 23.7305 9.55469C23.375 10.0833 23.1152 10.6849 22.9512 11.3594C22.7871 12.0247 22.7051 12.6855 22.7051 13.3418C22.7051 13.998 22.7917 14.6589 22.9648 15.3242C23.1471 15.9896 23.4206 16.5911 23.7852 17.1289C24.1497 17.6576 24.6055 18.0905 25.1523 18.4277C25.7083 18.765 26.3555 18.9336 27.0938 18.9336C27.8685 18.9336 28.5339 18.765 29.0898 18.4277C29.6549 18.0905 30.1198 17.6576 30.4844 17.1289C30.849 16.5911 31.1178 15.9896 31.291 15.3242C31.4642 14.6589 31.5508 13.998 31.5508 13.3418ZM48.1211 20.8613L48.3125 18.9336C47.2005 19.6445 46.1068 20.1595 45.0312 20.4785C43.9648 20.7975 42.9668 20.957 42.0371 20.957C41.3809 20.957 40.7428 20.8704 40.123 20.6973C39.5124 20.5332 38.9701 20.278 38.4961 19.9316C38.0312 19.5762 37.653 19.1296 37.3613 18.5918C37.0788 18.0449 36.9375 17.4023 36.9375 16.6641C36.9375 15.9258 37.0469 15.265 37.2656 14.6816C37.4844 14.0983 37.7852 13.5833 38.168 13.1367C38.5508 12.6901 39.002 12.3073 39.5215 11.9883C40.041 11.6693 40.597 11.4095 41.1895 11.209C41.791 11.0085 42.4199 10.8626 43.0762 10.7715C43.7324 10.6712 44.3841 10.6211 45.0312 10.6211C45.6328 10.6211 46.1934 10.6439 46.7129 10.6895C47.2324 10.735 47.6927 10.7943 48.0938 10.8672C47.9753 10.4115 47.8294 9.96484 47.6562 9.52734C47.4831 9.08073 47.2598 8.68424 46.9863 8.33789C46.722 7.98242 46.3939 7.69531 46.002 7.47656C45.61 7.25781 45.1406 7.14844 44.5938 7.14844C44.2383 7.14844 43.8327 7.20312 43.377 7.3125C42.9212 7.41276 42.4199 7.59961 41.873 7.87305C41.3262 8.14648 40.7292 8.52474 40.082 9.00781C39.4349 9.48177 38.7422 10.0924 38.0039 10.8398L36.3496 8.83008C37.2246 8.00977 38.0632 7.33984 38.8652 6.82031C39.6673 6.30078 40.4193 5.89518 41.1211 5.60352C41.832 5.30273 42.4883 5.09766 43.0898 4.98828C43.7005 4.87891 44.2474 4.82422 44.7305 4.82422C45.569 4.82422 46.3164 4.97005 46.9727 5.26172C47.6289 5.54427 48.2031 5.9362 48.6953 6.4375C49.1966 6.92969 49.6159 7.51302 49.9531 8.1875C50.2995 8.85286 50.582 9.57292 50.8008 10.3477C51.0195 11.1133 51.1745 11.9108 51.2656 12.7402C51.3659 13.5697 51.416 14.3945 51.416 15.2148C51.416 16.0898 51.3659 17.0286 51.2656 18.0312C51.1654 19.0339 51.0104 20.1276 50.8008 21.3125L48.1211 20.8613ZM48.5039 15.8848C48.5221 15.429 48.5358 14.9779 48.5449 14.5312C48.554 14.0846 48.5312 13.6198 48.4766 13.1367C48.0299 13 47.5605 12.8906 47.0684 12.8086C46.5762 12.7266 46.084 12.6855 45.5918 12.6855C44.7715 12.6855 43.974 12.7812 43.1992 12.9727C42.4336 13.1641 41.7728 13.4421 41.2168 13.8066C40.6608 14.1712 40.2415 14.6178 39.959 15.1465C39.6855 15.6751 39.6309 16.2767 39.7949 16.9512C39.9225 17.498 40.1686 17.8809 40.5332 18.0996C40.9069 18.3184 41.3535 18.4277 41.873 18.4277C42.4017 18.4277 42.9714 18.3411 43.582 18.168C44.2018 17.9857 44.8125 17.7669 45.4141 17.5117C46.0247 17.2474 46.599 16.9694 47.1367 16.6777C47.6745 16.3861 48.1302 16.1217 48.5039 15.8848ZM69.3945 0.394531L69.3398 20.5605H66.5371L66.5645 18.8242C66.291 19.0794 66.0085 19.3027 65.7168 19.4941C65.4342 19.6855 65.1471 19.8542 64.8555 20C64.5729 20.1367 64.2949 20.2507 64.0215 20.3418C63.748 20.4421 63.4883 20.5241 63.2422 20.5879C62.668 20.7337 62.0983 20.8158 61.5332 20.834C60.4759 20.834 59.4915 20.6471 58.5801 20.2734C57.6686 19.9089 56.8757 19.3848 56.2012 18.7012C55.5267 18.0085 54.9935 17.1699 54.6016 16.1855C54.2188 15.2012 54.0273 14.0938 54.0273 12.8633C54.0273 11.6237 54.2415 10.5208 54.6699 9.55469C55.0983 8.57943 55.6589 7.75911 56.3516 7.09375C57.0534 6.42839 57.8418 5.92253 58.7168 5.57617C59.6009 5.2207 60.4896 5.04297 61.3828 5.04297C61.9935 5.05208 62.6133 5.13411 63.2422 5.28906C63.7799 5.41667 64.3587 5.63086 64.9785 5.93164C65.5983 6.22331 66.1771 6.64714 66.7148 7.20312L66.8242 0.203125L69.3945 0.394531ZM61.5332 18.3184C62.0983 18.3184 62.6497 18.2272 63.1875 18.0449C63.7253 17.8626 64.2174 17.6074 64.6641 17.2793C65.1198 16.9421 65.5163 16.541 65.8535 16.0762C66.1908 15.6113 66.446 15.1009 66.6191 14.5449L66.6465 11.6328C66.4824 11.0495 66.2272 10.5163 65.8809 10.0332C65.5345 9.54102 65.1289 9.12174 64.6641 8.77539C64.1992 8.42904 63.6888 8.16016 63.1328 7.96875C62.5859 7.77734 62.0254 7.68164 61.4512 7.68164C60.7767 7.68164 60.1569 7.82292 59.5918 8.10547C59.0267 8.37891 58.5391 8.75716 58.1289 9.24023C57.7188 9.72331 57.3997 10.293 57.1719 10.9492C56.944 11.6055 56.8301 12.3164 56.8301 13.082C56.8301 13.8477 56.944 14.5495 57.1719 15.1875C57.4089 15.8255 57.7324 16.377 58.1426 16.8418C58.5618 17.3066 59.0586 17.6712 59.6328 17.9355C60.2161 18.1908 60.8496 18.3184 61.5332 18.3184ZM76.3125 9.41797C76.6042 9.05339 76.9095 8.67969 77.2285 8.29688C77.5566 7.90495 77.9076 7.54948 78.2812 7.23047C78.6641 6.91146 79.0742 6.65169 79.5117 6.45117C79.9583 6.24154 80.4505 6.13672 80.9883 6.13672C81.3711 6.13672 81.7402 6.20052 82.0957 6.32812C82.4512 6.44661 82.7747 6.63346 83.0664 6.88867C83.3581 7.14388 83.6042 7.47201 83.8047 7.87305C84.0052 8.26497 84.1328 8.73438 84.1875 9.28125C84.4701 8.92578 84.7663 8.56576 85.0762 8.20117C85.3952 7.82747 85.737 7.49023 86.1016 7.18945C86.4753 6.87956 86.8763 6.62891 87.3047 6.4375C87.7331 6.23698 88.207 6.13672 88.7266 6.13672C89.1276 6.13672 89.5195 6.20508 89.9023 6.3418C90.2852 6.47852 90.6224 6.69271 90.9141 6.98438C91.2148 7.26693 91.4609 7.63607 91.6523 8.0918C91.8438 8.53841 91.9486 9.07161 91.9668 9.69141C92.0215 10.3568 92.0716 11.1953 92.1172 12.207C92.1628 13.0729 92.1992 14.1758 92.2266 15.5156C92.263 16.8464 92.2812 18.446 92.2812 20.3145L89.4238 20.4512C89.4238 18.7923 89.4193 17.375 89.4102 16.1992C89.401 15.0143 89.3919 14.0345 89.3828 13.2598C89.3646 12.3574 89.3509 11.61 89.3418 11.0176C89.3145 10.2702 89.1914 9.71419 88.9727 9.34961C88.763 8.98503 88.485 8.80273 88.1387 8.80273C87.9108 8.80273 87.6784 8.87109 87.4414 9.00781C87.2135 9.14453 86.9811 9.32227 86.7441 9.54102C86.5163 9.75977 86.2884 10.0104 86.0605 10.293C85.8418 10.5755 85.6322 10.8626 85.4316 11.1543C85.2311 11.446 85.0397 11.7285 84.8574 12.002C84.6751 12.2754 84.5156 12.5169 84.3789 12.7266C84.3971 13.1276 84.4154 13.5697 84.4336 14.0527C84.4518 14.5358 84.4655 15.0827 84.4746 15.6934C84.4928 16.304 84.502 16.9876 84.502 17.7441C84.5111 18.5007 84.5156 19.3574 84.5156 20.3145L81.8633 20.4512C81.8633 18.7923 81.8451 17.375 81.8086 16.1992C81.7812 15.0143 81.7493 14.0345 81.7129 13.2598C81.6764 12.3574 81.6309 11.61 81.5762 11.0176C81.5488 10.2702 81.4258 9.71419 81.207 9.34961C80.9974 8.98503 80.7194 8.80273 80.373 8.80273C80.1361 8.80273 79.8945 8.88021 79.6484 9.03516C79.4023 9.1901 79.1517 9.39062 78.8965 9.63672C78.6504 9.88281 78.4089 10.1654 78.1719 10.4844C77.9349 10.7943 77.707 11.1087 77.4883 11.4277C77.2695 11.7467 77.0645 12.0521 76.873 12.3438C76.6816 12.6354 76.513 12.8906 76.3672 13.1094L76.4902 20.3145L73.7695 20.4512L73.4004 5.75391L76.2578 5.43945L76.3125 9.41797ZM106.801 20.8613L106.992 18.9336C105.88 19.6445 104.786 20.1595 103.711 20.4785C102.645 20.7975 101.646 20.957 100.717 20.957C100.061 20.957 99.4225 20.8704 98.8027 20.6973C98.1921 20.5332 97.6497 20.278 97.1758 19.9316C96.7109 19.5762 96.3327 19.1296 96.041 18.5918C95.7585 18.0449 95.6172 17.4023 95.6172 16.6641C95.6172 15.9258 95.7266 15.265 95.9453 14.6816C96.1641 14.0983 96.4648 13.5833 96.8477 13.1367C97.2305 12.6901 97.6816 12.3073 98.2012 11.9883C98.7207 11.6693 99.2767 11.4095 99.8691 11.209C100.471 11.0085 101.1 10.8626 101.756 10.7715C102.412 10.6712 103.064 10.6211 103.711 10.6211C104.312 10.6211 104.873 10.6439 105.393 10.6895C105.912 10.735 106.372 10.7943 106.773 10.8672C106.655 10.4115 106.509 9.96484 106.336 9.52734C106.163 9.08073 105.939 8.68424 105.666 8.33789C105.402 7.98242 105.074 7.69531 104.682 7.47656C104.29 7.25781 103.82 7.14844 103.273 7.14844C102.918 7.14844 102.512 7.20312 102.057 7.3125C101.601 7.41276 101.1 7.59961 100.553 7.87305C100.006 8.14648 99.4089 8.52474 98.7617 9.00781C98.1146 9.48177 97.4219 10.0924 96.6836 10.8398L95.0293 8.83008C95.9043 8.00977 96.7428 7.33984 97.5449 6.82031C98.347 6.30078 99.099 5.89518 99.8008 5.60352C100.512 5.30273 101.168 5.09766 101.77 4.98828C102.38 4.87891 102.927 4.82422 103.41 4.82422C104.249 4.82422 104.996 4.97005 105.652 5.26172C106.309 5.54427 106.883 5.9362 107.375 6.4375C107.876 6.92969 108.296 7.51302 108.633 8.1875C108.979 8.85286 109.262 9.57292 109.48 10.3477C109.699 11.1133 109.854 11.9108 109.945 12.7402C110.046 13.5697 110.096 14.3945 110.096 15.2148C110.096 16.0898 110.046 17.0286 109.945 18.0312C109.845 19.0339 109.69 20.1276 109.48 21.3125L106.801 20.8613ZM107.184 15.8848C107.202 15.429 107.215 14.9779 107.225 14.5312C107.234 14.0846 107.211 13.6198 107.156 13.1367C106.71 13 106.24 12.8906 105.748 12.8086C105.256 12.7266 104.764 12.6855 104.271 12.6855C103.451 12.6855 102.654 12.7812 101.879 12.9727C101.113 13.1641 100.452 13.4421 99.8965 13.8066C99.3405 14.1712 98.9212 14.6178 98.6387 15.1465C98.3652 15.6751 98.3105 16.2767 98.4746 16.9512C98.6022 17.498 98.8483 17.8809 99.2129 18.0996C99.5866 18.3184 100.033 18.4277 100.553 18.4277C101.081 18.4277 101.651 18.3411 102.262 18.168C102.882 17.9857 103.492 17.7669 104.094 17.5117C104.704 17.2474 105.279 16.9694 105.816 16.6777C106.354 16.3861 106.81 16.1217 107.184 15.8848ZM114.02 21.0117C113.965 19.444 113.915 18.0267 113.869 16.7598C113.824 15.4837 113.783 14.3444 113.746 13.3418C113.71 12.3392 113.678 11.4551 113.65 10.6895C113.632 9.92383 113.614 9.26302 113.596 8.70703C113.559 7.40365 113.532 6.4375 113.514 5.80859L116.631 5.75391L116.686 9.69141C116.986 9.17188 117.328 8.68424 117.711 8.22852C118.094 7.76367 118.508 7.35352 118.955 6.99805C119.402 6.64258 119.876 6.35547 120.377 6.13672C120.887 5.91797 121.421 5.79036 121.977 5.75391C122.669 5.70833 123.271 5.76758 123.781 5.93164C124.301 6.0957 124.743 6.32357 125.107 6.61523C125.472 6.9069 125.773 7.25326 126.01 7.6543C126.247 8.04622 126.434 8.45638 126.57 8.88477C126.707 9.30404 126.803 9.72331 126.857 10.1426C126.921 10.5618 126.962 10.9447 126.98 11.291C127.035 12.8587 127.049 14.4355 127.021 16.0215C126.994 17.6074 126.962 19.2526 126.926 20.957L124.123 20.8613C124.196 19.3939 124.26 17.9264 124.314 16.459C124.378 14.9915 124.374 13.5104 124.301 12.0156C124.301 11.8516 124.287 11.6419 124.26 11.3867C124.242 11.1224 124.191 10.8444 124.109 10.5527C124.036 10.2611 123.932 9.97396 123.795 9.69141C123.658 9.39974 123.48 9.14909 123.262 8.93945C123.043 8.7207 122.774 8.55664 122.455 8.44727C122.145 8.33789 121.781 8.3151 121.361 8.37891C120.641 8.48828 119.908 9.01693 119.16 9.96484C118.422 10.9036 117.624 12.2799 116.768 14.0938C116.804 15.5612 116.831 16.7324 116.85 17.6074C116.877 18.4733 116.9 19.1296 116.918 19.5762C116.936 20.1048 116.95 20.4603 116.959 20.6426L114.02 21.0117Z" fill="white"/>
</svg>
