<svg width="59" height="42" viewBox="0 0 59 42" fill="none" xmlns="http://www.w3.org/2000/svg">
<path d="M0 0.15918H53.3353C56.2232 0.15918 58.5643 2.50026 58.5643 5.38813V36.7618C58.5643 39.6497 56.2232 41.9908 53.3353 41.9908H0V0.15918Z" fill="#482C0C"/>
<path d="M12.9732 17.5209L15.1689 18.9847L17.3579 15.9202C17.5258 15.6852 17.8524 15.6308 18.0873 15.7986C18.1343 15.8321 18.1753 15.8732 18.2089 15.9202L20.3979 18.9847L22.5937 17.5209C22.834 17.3607 23.1586 17.4256 23.3188 17.6659C23.3877 17.7693 23.4175 17.8937 23.403 18.0171L22.5438 25.3206C22.5128 25.5839 22.2896 25.7824 22.0245 25.7824H13.5423C13.2772 25.7824 13.054 25.5839 13.023 25.3206L12.1638 18.0171C12.13 17.7303 12.3352 17.4704 12.622 17.4367C12.7453 17.4221 12.8698 17.452 12.9732 17.5209ZM17.7834 22.645C18.361 22.645 18.8292 22.1768 18.8292 21.5992C18.8292 21.0216 18.361 20.5534 17.7834 20.5534C17.2058 20.5534 16.7376 21.0216 16.7376 21.5992C16.7376 22.1768 17.2058 22.645 17.7834 22.645Z" fill="white"/>
</svg>
