<svg width="14" height="14" viewBox="0 0 14 14" fill="none" xmlns="http://www.w3.org/2000/svg">
<path d="M5.24996 1.75065V0.583984H4.08329V1.75065H1.74996C1.4278 1.75065 1.16663 2.01182 1.16663 2.33398V11.6673C1.16663 11.9895 1.4278 12.2507 1.74996 12.2507H12.25C12.5721 12.2507 12.8333 11.9895 12.8333 11.6673V2.33398C12.8333 2.01182 12.5721 1.75065 12.25 1.75065H9.91663V0.583984H8.74996V1.75065H5.24996ZM2.33329 4.66732H11.6666V11.084H2.33329V4.66732ZM5.76243 5.81316L6.9999 7.0507L8.23727 5.81317L9.06228 6.63811L7.82485 7.87565L9.06222 9.11296L8.23733 9.93797L6.9999 8.7006L5.76239 9.93797L4.93748 9.11296L6.17489 7.87565L4.93744 6.63811L5.76243 5.81316Z" fill="#979797"/>
</svg>
