<svg width="14" height="14" viewBox="0 0 14 14" fill="none" xmlns="http://www.w3.org/2000/svg">
<path d="M5.25008 0.583984V1.75065H8.75008V0.583984H9.91675V1.75065H12.2501C12.5723 1.75065 12.8334 2.01182 12.8334 2.33398V11.6673C12.8334 11.9895 12.5723 12.2507 12.2501 12.2507H1.75008C1.42792 12.2507 1.16675 11.9895 1.16675 11.6673V2.33398C1.16675 2.01182 1.42792 1.75065 1.75008 1.75065H4.08342V0.583984H5.25008ZM11.6667 4.66732H2.33341V11.084H11.6667V4.66732ZM8.77079 5.91332L9.59574 6.73833L6.70842 9.62565L4.64602 7.56328L5.47098 6.73833L6.70842 7.97575L8.77079 5.91332Z" fill="#979797"/>
</svg>
