<svg width="16" height="16" viewBox="0 0 16 16" fill="none" xmlns="http://www.w3.org/2000/svg">
<path fill-rule="evenodd" clip-rule="evenodd" d="M4.55044 10.7132C4.61167 10.6765 4.68806 10.6763 4.74951 10.7126C5.91218 11.3997 7.02137 11.7121 8.09217 11.6996C9.16311 11.6871 10.21 11.3495 11.2477 10.7142C11.3095 10.6764 11.3872 10.676 11.4494 10.7132L13.9833 12.2313C14.0422 12.2666 14.0782 12.3302 14.078 12.3989C14.0777 12.4675 14.0414 12.5309 13.9823 12.5659C11.9973 13.7385 10.0027 14.3525 8.00102 14.3637C5.99873 14.3749 4.00248 13.7829 2.0149 12.5642C1.95688 12.5286 1.92165 12.4653 1.922 12.3973C1.92235 12.3292 1.95822 12.2663 2.01661 12.2313L4.55044 10.7132ZM4.65185 11.1063L2.49563 12.3981C4.33708 13.4714 6.17068 13.9846 7.99884 13.9744C9.82508 13.9642 11.6578 13.4315 13.4993 12.3951L11.3497 11.1073C10.2959 11.7333 9.21459 12.0758 8.09671 12.0889C6.9747 12.1019 5.82941 11.7829 4.65185 11.1063Z" fill="white"/>
<path fill-rule="evenodd" clip-rule="evenodd" d="M7.86557 1.67044C7.92843 1.63137 8.008 1.63134 8.0709 1.67034L13.9859 5.33857C14.0431 5.37407 14.078 5.43664 14.078 5.50399V8.03399C14.078 8.10395 14.0404 8.16853 13.9796 8.20314C13.9188 8.23776 13.8441 8.23709 13.784 8.20138L7.96891 4.75035L2.21677 8.20081C2.15664 8.23688 2.08175 8.23782 2.02073 8.20327C1.95971 8.16872 1.922 8.10402 1.922 8.03389V5.47243C1.922 5.40514 1.95675 5.34262 2.0139 5.3071L7.86557 1.67044ZM7.96842 2.06487L2.31129 5.58063V7.69015L7.86825 4.35677C7.9296 4.31997 8.00619 4.31979 8.06772 4.3563L13.6887 7.69213V5.61232L7.96842 2.06487Z" fill="white"/>
<path fill-rule="evenodd" clip-rule="evenodd" d="M7.86935 6.59393C7.93012 6.55805 8.00554 6.55787 8.06648 6.59346L13.9815 10.0482C14.0412 10.0831 14.078 10.1471 14.078 10.2163V12.3982C14.078 12.4685 14.0401 12.5332 13.979 12.5677C13.9179 12.6023 13.8429 12.6012 13.7827 12.5649L7.96892 9.05631L2.21801 12.5644C2.15793 12.6011 2.08274 12.6024 2.02136 12.568C1.95999 12.5335 1.922 12.4686 1.922 12.3982V10.2163C1.922 10.1474 1.95839 10.0837 2.01769 10.0487L7.86935 6.59393ZM7.96884 6.98727L2.31129 10.3274V12.0515L7.86701 8.66247C7.92897 8.62468 8.00681 8.62449 8.06895 8.66199L13.6887 12.0534V10.328L7.96884 6.98727Z" fill="white"/>
</svg>
