<svg width="40" height="40" viewBox="0 0 40 40" fill="none" xmlns="http://www.w3.org/2000/svg">
<path d="M19.9997 16.6673C17.2383 16.6673 14.9997 18.9059 14.9997 21.6673C14.9997 24.4287 17.2383 26.6673 19.9997 26.6673C22.7611 26.6673 24.9997 24.4287 24.9997 21.6673C24.9997 18.9059 22.7611 16.6673 19.9997 16.6673Z" fill="white"/>
<path fill-rule="evenodd" clip-rule="evenodd" d="M17.0707 5.83398H22.9286C24.2547 5.83398 25.5265 6.36077 26.4641 7.29845L27.6073 8.44162C28.0861 8.92043 28.6572 9.29699 29.2859 9.54847L33.5233 11.2434C35.4216 12.0027 36.6663 13.8413 36.6663 15.8858V29.1673C36.6663 31.9287 34.4278 34.1673 31.6663 34.1673H8.33301C5.57158 34.1673 3.33301 31.9287 3.33301 29.1673V15.8858C3.33301 13.8413 4.57776 12.0027 6.47606 11.2434L10.7135 9.54847C11.3422 9.29699 11.9132 8.92043 12.392 8.44162L13.5352 7.29845C14.4729 6.36077 15.7447 5.83398 17.0707 5.83398ZM11.6663 21.6673C11.6663 17.0649 15.3973 13.334 19.9997 13.334C24.602 13.334 28.333 17.0649 28.333 21.6673C28.333 26.2697 24.602 30.0007 19.9997 30.0007C15.3973 30.0007 11.6663 26.2697 11.6663 21.6673ZM26.4124 15.3212C27.0806 15.5439 27.6049 16.0682 27.8276 16.7364C28.0543 17.4164 29.0162 17.4164 29.2428 16.7364C29.4656 16.0682 29.9899 15.5439 30.658 15.3212C31.3381 15.0945 31.3381 14.1327 30.658 13.906C29.9899 13.6833 29.4656 13.159 29.2428 12.4908C29.0162 11.8108 28.0543 11.8108 27.8276 12.4908C27.6049 13.159 27.0806 13.6833 26.4124 13.906C25.7324 14.1327 25.7324 15.0945 26.4124 15.3212Z" fill="white"/>
</svg>
