<svg width="18" height="18" viewBox="0 0 18 18" fill="none" xmlns="http://www.w3.org/2000/svg">
<path d="M5.2861 10.0546L7.93733 12.7066L6.87773 13.7669L7.93868 14.8283L6.87798 15.889L5.02211 14.0325L2.90051 16.1541L1.83984 15.0934L3.96144 12.9718L2.10501 11.116L3.16567 10.0553L4.22608 11.1152L5.2861 10.0546ZM2.24931 2.25L4.9088 2.25251L13.7718 11.1155L14.8329 10.0553L15.8936 11.116L14.0375 12.9721L16.1588 15.0934L15.0981 16.1541L12.9768 14.0328L11.1206 15.889L10.06 14.8283L11.1202 13.7671L2.25136 4.89839L2.24931 2.25ZM13.0922 2.25007L15.7493 2.25251L15.7508 4.89486L12.7111 7.93358L10.0591 5.28232L13.0922 2.25007Z" fill="white"/>
</svg>
