<svg width="14" height="14" viewBox="0 0 14 14" fill="none" xmlns="http://www.w3.org/2000/svg">
<path d="M6.55415 1.76367C3.71064 1.76367 1.37888 3.95689 1.1582 6.74444L4.06083 7.94394C4.30677 7.7765 4.60372 7.67767 4.92367 7.67767C4.9521 7.67767 4.98008 7.67951 5.00852 7.68037L6.29963 5.81119V5.78457C6.29963 4.65862 7.21483 3.74298 8.34122 3.74298C9.46669 3.74298 10.3828 4.65953 10.3828 5.78592C10.3828 6.91231 9.46669 7.82794 8.34122 7.82794H8.29383L6.4544 9.14165C6.4544 9.1651 6.45619 9.18903 6.45619 9.2134C6.45619 10.0596 5.7725 10.7459 4.92638 10.7459C4.18854 10.7459 3.56533 10.2166 3.42317 9.51531L1.34503 8.6547C1.98855 10.9278 4.07527 12.5944 6.55415 12.5944C9.54478 12.5944 11.969 10.1696 11.969 7.17902C11.969 4.18839 9.54429 1.76367 6.55415 1.76367ZM3.88618 9.7062C4.00442 9.95124 4.2084 10.157 4.47917 10.2703C5.06447 10.5135 5.73958 10.236 5.98283 9.64977C6.10148 9.36547 6.10197 9.05452 5.98505 8.77021C5.86819 8.48591 5.6466 8.26436 5.36367 8.14609C5.08207 8.0288 4.78152 8.03372 4.51617 8.13255L5.20347 8.41686C5.6349 8.59741 5.83933 9.09378 5.65878 9.52479C5.47964 9.95666 4.98324 10.1611 4.55137 9.98146L3.88618 9.7062ZM9.70226 5.78321C9.70226 5.03319 9.09168 4.42261 8.34165 4.42261C7.59027 4.42261 6.98104 5.03319 6.98104 5.78321C6.98104 6.53459 7.59027 7.14382 8.34165 7.14382C9.09211 7.14382 9.70226 6.53459 9.70226 5.78321ZM8.34479 4.75836C8.90848 4.75836 9.36743 5.21596 9.36743 5.78096C9.36743 6.34549 8.90848 6.80309 8.34479 6.80309C7.77938 6.80309 7.32265 6.34549 7.32265 5.78096C7.32265 5.21596 7.77981 4.75836 8.34479 4.75836Z" fill="white"/>
</svg>
