<svg width="14" height="14" viewBox="0 0 14 14" fill="none" xmlns="http://www.w3.org/2000/svg">
<path d="M8.17049 12.0533C8.12451 12.0533 8.09392 12.0226 8.10155 11.9844V2.37458C8.10155 2.34395 8.12451 2.31332 8.1628 2.31332H9.6713C11.0496 2.31332 12.1676 3.43127 12.1676 4.80957V9.55703C12.1676 10.9353 11.0496 12.0533 9.6713 12.0533H8.17049ZM10.0235 6.67791C9.47987 6.67791 9.03575 7.12207 9.03575 7.66572C9.03575 8.20937 9.47987 8.65348 10.0235 8.65348C10.5672 8.65348 11.0113 8.20937 11.0113 7.66572C11.0113 7.12207 10.5672 6.67791 10.0235 6.67791ZM3.93605 5.23072C3.93605 4.72534 4.34953 4.31185 4.85491 4.31185C5.36029 4.31185 5.77378 4.72534 5.77378 5.23072C5.77378 5.73609 5.36029 6.14959 4.85491 6.14959C4.34953 6.14959 3.93605 5.73609 3.93605 5.23072ZM7.04486 2.30566C7.09083 2.30566 7.12143 2.33629 7.11379 2.37458V11.9767C7.11379 12.015 7.08314 12.0457 7.04486 12.0457H4.91617C3.53787 12.0457 2.41992 10.9277 2.41992 9.5494V4.80191C2.41992 3.42361 3.53787 2.30566 4.91617 2.30566H7.04486ZM6.33274 11.2646V3.0867H4.91617C4.45674 3.0867 4.02793 3.27047 3.70633 3.59207C3.37707 3.91368 3.20096 4.34248 3.20096 4.80191V9.5494C3.20096 10.0088 3.38473 10.4376 3.70633 10.7592C4.02793 11.0885 4.45674 11.2646 4.91617 11.2646H6.33274Z" fill="white"/>
</svg>
