<svg width="15" height="15" viewBox="0 0 15 15" fill="none" xmlns="http://www.w3.org/2000/svg">
<path d="M10.625 2.5C12.6961 2.5 14.375 4.17893 14.375 6.25V8.75C14.375 10.8211 12.6961 12.5 10.625 12.5H4.375C2.30393 12.5 0.625 10.8211 0.625 8.75V6.25C0.625 4.17893 2.30393 2.5 4.375 2.5H10.625ZM10.625 3.75H4.375C3.03612 3.75 1.94307 4.80248 1.87806 6.12522L1.875 6.25V8.75C1.875 10.0889 2.92748 11.1819 4.25022 11.2469L4.375 11.25H10.625C11.9639 11.25 13.0569 10.1975 13.1219 8.87475L13.125 8.75V6.25C13.125 4.91112 12.0725 3.81807 10.7497 3.75306L10.625 3.75ZM6.25 5.625V6.875H7.5V8.125H6.24937L6.25 9.375H5L4.99937 8.125H3.75V6.875H5V5.625H6.25ZM11.25 8.125V9.375H10V8.125H11.25ZM10 5.625V6.875H8.75V5.625H10Z" fill="white"/>
</svg>
