<svg width="20" height="20" viewBox="0 0 20 20" fill="none" xmlns="http://www.w3.org/2000/svg">
<g clip-path="url(#clip0_1225_425)">
<path d="M9.97828 5.86986C10.1106 5.82401 10.2552 5.86229 10.3765 5.9221C10.4612 5.97667 10.546 6.03181 10.6409 6.06751C10.6481 6.08115 10.6632 6.10814 10.6705 6.12149C10.6667 6.13049 10.6594 6.14906 10.6557 6.15806C10.7233 6.31188 10.7665 6.49414 10.7009 6.65576C10.6562 6.71032 10.5785 6.71877 10.5155 6.7399C10.5152 6.81797 10.5277 6.8952 10.5343 6.97269C10.669 6.99445 10.783 6.90071 10.9162 6.91C10.9342 6.83541 10.9484 6.7596 10.9723 6.6865C10.9999 6.73496 11.001 6.79072 11.0013 6.84528C11.0361 6.85515 11.0716 6.86414 11.1072 6.87282C11.1075 6.8862 11.1078 6.9129 11.1078 6.92625C11.6917 6.92973 12.2753 6.92361 12.8593 6.92944C12.8579 6.94941 12.855 6.98949 12.8538 7.00954C12.8689 7.00954 12.8997 7.00984 12.915 7.00984C12.9144 6.90364 12.915 6.7971 12.9147 6.69091C12.9295 6.6903 12.9586 6.68943 12.9731 6.68914C12.9734 6.77272 12.9737 6.85631 12.9746 6.93992C12.9873 6.95559 13.0128 6.98691 13.0257 7.00258C13.0352 6.99123 13.0544 6.96894 13.0639 6.95759C13.1083 6.99913 13.0831 7.05601 13.0811 7.10703C13.2445 7.10526 13.4096 7.11629 13.5724 7.10294C13.5846 7.09394 13.609 7.07624 13.6212 7.06727C13.6436 7.07595 13.6662 7.08468 13.6885 7.09368C13.762 7.09188 13.8357 7.09165 13.9094 7.09136C13.9079 7.12938 13.9067 7.16737 13.9053 7.20542C13.8104 7.20394 13.7152 7.20193 13.6217 7.21816C13.5614 7.16624 13.4804 7.18272 13.4075 7.18075C13.2955 7.18597 13.1799 7.16624 13.0715 7.20191C13.007 7.2199 12.9362 7.21557 12.8793 7.17898C12.8656 7.21293 12.8866 7.28897 12.8294 7.28604C12.6041 7.28897 12.3792 7.28404 12.1543 7.28752C12.1235 7.30377 12.0925 7.31916 12.0618 7.33422C12.0293 7.43115 11.9361 7.49584 11.8568 7.55505C11.8469 7.70393 11.9059 7.84295 11.9288 7.98745C11.8844 8.0002 11.8397 8.01331 11.7959 8.02782C11.7329 8.17642 11.7715 8.37926 11.6258 8.48292C11.5141 8.54791 11.4401 8.68924 11.2894 8.66693C11.366 8.73078 11.2685 8.71075 11.2787 8.65967C11.0062 8.63558 10.7766 8.47567 10.5398 8.3538C10.5287 8.42053 10.5114 8.48615 10.4933 8.55145C10.5833 8.56857 10.6576 8.63474 10.6736 8.72703C10.7023 8.92819 10.6448 9.12789 10.6457 9.32957C10.6521 9.44798 10.6013 9.55649 10.538 9.65314C10.4826 9.71583 10.3952 9.65137 10.3288 9.64211C10.3137 9.67142 10.2989 9.70076 10.2844 9.73034C10.3032 9.80925 10.3114 9.89138 10.3378 9.96858C10.4861 10.1326 10.621 10.3102 10.7246 10.5061C10.8313 10.728 10.9263 10.9552 11.0094 11.1869C11.0175 11.232 11.0599 11.2481 11.0971 11.2644C11.102 11.3109 11.1069 11.3572 11.1116 11.4043C11.1261 11.4255 11.1409 11.4466 11.156 11.4681C11.165 11.7543 11.1299 12.0393 11.0854 12.3217C11.0579 12.4491 11.1324 12.5736 11.1022 12.7019C11.1057 12.7675 11.0605 12.8171 11.0393 12.8752C11.0352 13.0107 11.0285 13.148 11.0434 13.2833C11.0538 13.3825 11.1377 13.4463 11.1946 13.5204C11.2567 13.5863 11.3086 13.6748 11.4027 13.6982C11.4912 13.7247 11.5756 13.763 11.6537 13.8132C11.6775 13.8721 11.6731 13.9345 11.6618 13.9957C11.4917 14.0271 11.3182 14.0114 11.1463 14.0141C11.0139 14.021 10.8959 13.9499 10.7673 13.9351C10.6427 13.9319 10.491 13.9937 10.3952 13.8823C10.4358 13.7276 10.4391 13.5616 10.5133 13.4173C10.5371 13.2539 10.4919 13.0882 10.5014 12.9234C10.4872 12.9115 10.4587 12.8877 10.4445 12.8757C10.4547 12.7681 10.4016 12.6722 10.3839 12.5692C10.3723 12.4188 10.3586 12.2685 10.3412 12.1188C10.3276 12.0459 10.3653 11.9792 10.4167 11.9308C10.4213 11.8466 10.4327 11.7633 10.4408 11.6797C10.4283 11.6254 10.385 11.5851 10.3572 11.5387C10.264 11.5779 10.1383 11.5593 10.0829 11.4681C9.95146 11.2725 9.82025 11.0769 9.68733 10.8824C9.63509 10.879 9.57995 10.8845 9.53119 10.8636C9.47494 10.8058 9.44557 10.7289 9.40964 10.6587C9.35824 10.7165 9.36199 10.8049 9.3011 10.8575C9.17224 10.9812 9.13799 11.1629 9.07066 11.3213C9.01906 11.424 9.04808 11.5479 8.99056 11.6481C8.9598 11.702 8.8826 11.7128 8.86228 11.7744C8.83558 11.8408 8.80424 11.9096 8.74184 11.95C8.67422 11.9943 8.65625 12.0785 8.6261 12.1481C8.59853 12.2123 8.63945 12.2796 8.62987 12.3455C8.58692 12.5548 8.4537 12.7298 8.39769 12.9347C8.37215 13.027 8.33555 13.1309 8.22817 13.1506C8.10599 13.3688 8.03868 13.6359 8.10776 13.8816C8.15013 13.9588 8.14781 14.0456 8.13475 14.1306C7.94062 14.1457 7.74149 14.1718 7.55085 14.1176C7.50615 14.029 7.51254 13.9249 7.52182 13.8292C7.58071 13.5775 7.65881 13.3302 7.70667 13.076C7.64688 13.0229 7.66084 12.9417 7.66197 12.8705C7.65997 12.7379 7.7502 12.6317 7.81289 12.5228C7.83643 12.4111 7.8254 12.291 7.88312 12.1885C7.95107 12.0602 8.0085 11.9215 8.1133 11.8179C8.1333 11.7265 8.20069 11.6574 8.22791 11.5694C8.25693 11.4916 8.20614 11.4127 8.21636 11.3332C8.24129 11.092 8.28514 10.8531 8.32316 10.6137C8.25121 10.5536 8.2744 10.4582 8.25148 10.3772C8.26279 10.3452 8.27702 10.3148 8.29414 10.2852C8.27614 10.2686 8.25847 10.2518 8.24045 10.2353C8.25786 10.1501 8.25293 9.99778 8.38353 10.0254C8.39165 9.74363 8.29385 9.47082 8.32664 9.18869C8.34406 9.20898 8.36115 9.22961 8.37859 9.25022L8.36931 9.15474C8.42387 9.12571 8.48191 9.10337 8.54286 9.09205C8.4436 9.07902 8.34696 9.05377 8.24968 9.0311C8.22617 8.96925 8.23929 8.9034 8.24794 8.84013C8.28566 8.62653 8.29959 8.41002 8.30743 8.19351C8.41743 8.15526 8.53874 8.18774 8.64612 8.13663C8.61281 7.86585 8.60439 7.5832 8.70069 7.32342C8.77817 7.10224 8.92622 6.88893 9.15721 6.81118C9.26633 6.78509 9.40361 6.75574 9.48075 6.86168C9.50193 6.84223 9.52312 6.82221 9.54431 6.80276C9.36817 6.45292 9.57858 5.94184 9.97828 5.86986ZM11.3879 7.38716C11.3414 7.4156 11.2959 7.44813 11.3447 7.49979C11.3209 7.51398 11.297 7.52765 11.2729 7.54068C11.2352 7.56971 11.1505 7.58622 11.1603 7.6449C11.2027 7.71297 11.2392 7.78451 11.2695 7.85877C11.362 7.78276 11.4358 7.68054 11.4857 7.57235C11.4961 7.56161 11.5173 7.54013 11.5278 7.52966C11.5231 7.48003 11.5121 7.43153 11.4926 7.3857C11.4578 7.38631 11.4227 7.38687 11.3879 7.38716Z" fill="white"/>
<path d="M12.2395 9.98535C12.3724 9.81763 12.5872 9.72473 12.8002 9.72822C13.4482 9.72882 14.0966 9.72793 14.7447 9.72851C15.0608 9.73518 15.369 9.98219 15.4055 10.3032C14.5084 10.3002 13.6116 10.3058 12.7149 10.3002C12.714 10.9004 12.7128 11.5009 12.7149 12.1014C13.4033 12.1003 14.0916 12.0991 14.7801 12.102C14.7775 11.8869 14.7809 11.6719 14.7781 11.4568C14.4377 11.4588 14.0972 11.4595 13.7568 11.4568C13.4837 11.4464 13.2805 11.2104 13.219 10.9591C13.951 10.9565 14.6826 10.9562 15.4145 10.9594C15.4114 11.3271 15.4163 11.6952 15.4119 12.0629C15.4032 12.3725 15.1368 12.6451 14.8315 12.6761C14.1254 12.6761 13.4189 12.6758 12.7128 12.6758C12.5018 12.6743 12.3152 12.5411 12.1962 12.3749C12.115 12.2573 12.0967 12.1113 12.0851 11.9729C12.0839 11.4795 12.0857 10.9858 12.0845 10.4924C12.0871 10.3136 12.1188 10.1247 12.2395 9.98535ZM16.5212 9.7485C16.5941 9.72877 16.67 9.72734 16.7453 9.72822C17.3443 9.73001 17.9436 9.72621 18.5426 9.72967C18.8822 9.74418 19.1805 10.0374 19.1936 10.378C19.1942 10.9286 19.1942 11.4794 19.1936 12.0303C19.1875 12.3678 18.8886 12.6824 18.5459 12.6767C17.8871 12.6738 17.2283 12.6787 16.5694 12.6743C16.2409 12.6378 15.9887 12.3241 15.9863 11.9993C15.9817 11.4972 15.9869 10.9945 15.9837 10.4924C15.9811 10.3444 16.0078 10.1923 16.0862 10.0646C16.1781 9.90412 16.343 9.79177 16.5212 9.7485ZM16.6245 10.2843C16.6257 10.9037 16.6219 11.5233 16.6262 12.1426C17.2697 12.1444 17.9134 12.1423 18.5568 12.1434C18.5588 11.5235 18.5571 10.9036 18.5577 10.2834C17.9134 10.2831 17.2688 10.282 16.6245 10.2843ZM0.00102382 10.4317C0.0146934 10.096 0.295891 9.78046 0.638065 9.7674C1.2774 9.76679 1.91705 9.76679 2.55645 9.76769C2.90181 9.76423 3.18948 10.0762 3.21554 10.4109C3.1694 10.4147 3.12325 10.4175 3.07711 10.4181C2.31585 10.4173 1.55459 10.4184 0.793596 10.4175C0.793277 10.9585 0.790433 11.4994 0.795048 12.0404C1.60306 12.0392 2.41075 12.0387 3.21874 12.0407C3.19581 12.3875 2.90381 12.6952 2.55183 12.7088C1.97254 12.717 1.39326 12.7091 0.813941 12.7126C0.6697 12.7176 0.521105 12.6996 0.391114 12.6337C0.167061 12.5191 0.00856964 12.2854 0.00079164 12.0318C0.000153147 11.4983 -0.000717525 10.9651 0.00102382 10.4317ZM3.83082 10.1688C3.93733 9.93631 4.18112 9.76365 4.44061 9.76681C5.0791 9.76742 5.71788 9.76682 6.3567 9.76711C6.69013 9.76914 6.98384 10.0611 7.00738 10.3905C6.16512 10.4024 5.32231 10.3922 4.47982 10.3955C4.47602 10.565 4.47779 10.7345 4.4775 10.9042C5.1038 10.9062 5.73039 10.9048 6.3567 10.9048C6.54241 10.912 6.73747 10.9716 6.86398 11.1152C7.00616 11.2423 7.06627 11.4359 7.07091 11.6222C7.07407 11.8083 7.07407 11.9952 7.04389 12.1794C6.97482 12.4778 6.68953 12.7001 6.38511 12.7097C5.77625 12.7155 5.16701 12.7103 4.55815 12.7126C4.41452 12.7155 4.26592 12.6949 4.13849 12.625C3.93649 12.5196 3.79138 12.3077 3.77138 12.0802C4.6287 12.0843 5.48631 12.0828 6.34364 12.0808C6.34567 11.9002 6.34451 11.7197 6.34451 11.5392C5.71008 11.5349 5.07536 11.5386 4.44061 11.5374C4.07583 11.5404 3.7531 11.2051 3.76291 10.8415C3.77568 10.6175 3.72405 10.3769 3.83082 10.1688ZM19.3918 9.82721C19.4725 9.82518 19.554 9.82199 19.6344 9.83418C19.597 9.84375 19.5589 9.84869 19.5206 9.84927C19.5157 9.93665 19.5151 10.024 19.5163 10.1113C19.5079 10.1113 19.4914 10.1113 19.4832 10.1116C19.4838 10.0219 19.4847 9.93224 19.4835 9.84285C19.4609 9.84465 19.4159 9.84869 19.3935 9.8504L19.3918 9.82721ZM19.6797 9.82396C19.6968 9.82486 19.7316 9.8266 19.7491 9.82747C19.7738 9.90609 19.8028 9.98329 19.8388 10.0579C19.8724 9.98271 19.8945 9.90258 19.9316 9.8295C19.9479 9.82718 19.9804 9.82225 19.9966 9.81993C19.9876 9.92673 20.0244 10.0448 19.9667 10.1421C19.9563 10.0475 19.9607 9.95224 19.9545 9.85734C19.9104 9.94588 19.8896 10.0454 19.8318 10.1273C19.7877 10.0431 19.7688 9.94731 19.716 9.86787C19.7125 9.95262 19.7143 10.0377 19.7131 10.1226L19.682 10.1191C19.682 10.0208 19.6806 9.92238 19.6797 9.82396Z" fill="white"/>
</g>
<defs>
<clipPath id="clip0_1225_425">
<rect width="20" height="20" fill="white"/>
</clipPath>
</defs>
</svg>
