<svg width="14" height="13" viewBox="0 0 14 13" fill="none" xmlns="http://www.w3.org/2000/svg">
<g clip-path="url(#clip0_2532_862)">
<path d="M1.97315 2.75136L4.16893 4.21522L6.3579 1.15065C6.52575 0.915655 6.85235 0.861226 7.08734 1.02908C7.1343 1.06261 7.17535 1.10369 7.20892 1.15065L9.39791 4.21522L11.5937 2.75136C11.834 2.59117 12.1586 2.6561 12.3188 2.89639C12.3877 2.99972 12.4175 3.1242 12.403 3.24753L11.5438 10.551C11.5128 10.8144 11.2896 11.0129 11.0245 11.0129H2.54234C2.27719 11.0129 2.05401 10.8144 2.02302 10.551L1.16379 3.24753C1.13005 2.96072 1.3352 2.70087 1.62201 2.66712C1.74535 2.65261 1.86982 2.68248 1.97315 2.75136ZM6.78344 7.87549C7.36097 7.87549 7.82923 7.40729 7.82923 6.8297C7.82923 6.25211 7.36097 5.78391 6.78344 5.78391C6.20585 5.78391 5.73765 6.25211 5.73765 6.8297C5.73765 7.40729 6.20585 7.87549 6.78344 7.87549Z" fill="white"/>
</g>
<defs>
<clipPath id="clip0_2532_862">
<rect width="12.5495" height="12.5495" fill="white" transform="translate(0.503906 0.03125)"/>
</clipPath>
</defs>
</svg>
