<svg width="14" height="14" viewBox="0 0 14 14" fill="none" xmlns="http://www.w3.org/2000/svg">
<path d="M0.25 6.75C0.25 7.30228 0.697715 7.75 1.25 7.75H5.25C5.80228 7.75 6.25 7.30228 6.25 6.75V1.25C6.25 0.697715 5.80228 0.25 5.25 0.25H1.25C0.697715 0.25 0.25 0.697715 0.25 1.25V6.75ZM0.25 12.75C0.25 13.3023 0.697715 13.75 1.25 13.75H5.25C5.80228 13.75 6.25 13.3023 6.25 12.75V10.25C6.25 9.69771 5.80228 9.25 5.25 9.25H1.25C0.697715 9.25 0.25 9.69771 0.25 10.25V12.75ZM7.75 12.75C7.75 13.3023 8.19772 13.75 8.75 13.75H12.75C13.3023 13.75 13.75 13.3023 13.75 12.75V7.25C13.75 6.69772 13.3023 6.25 12.75 6.25H8.75C8.19772 6.25 7.75 6.69772 7.75 7.25V12.75ZM8.75 0.25C8.19772 0.25 7.75 0.697715 7.75 1.25V3.75C7.75 4.30228 8.19772 4.75 8.75 4.75H12.75C13.3023 4.75 13.75 4.30228 13.75 3.75V1.25C13.75 0.697715 13.3023 0.25 12.75 0.25H8.75Z" fill="#FF5733"/>
</svg>
