<svg width="18" height="18" viewBox="0 0 18 18" fill="none" xmlns="http://www.w3.org/2000/svg">
<path d="M13.5 13.5V15.75C13.5 16.1642 13.1642 16.5 12.75 16.5H5.25C4.83579 16.5 4.5 16.1642 4.5 15.75V13.5H2.25C1.83579 13.5 1.5 13.1642 1.5 12.75V9C1.5 4.85786 4.85786 1.5 9 1.5C13.1421 1.5 16.5 4.85786 16.5 9V12.75C16.5 13.1642 16.1642 13.5 15.75 13.5H13.5ZM5.625 10.5C6.24632 10.5 6.75 9.9963 6.75 9.375C6.75 8.7537 6.24632 8.25 5.625 8.25C5.00368 8.25 4.5 8.7537 4.5 9.375C4.5 9.9963 5.00368 10.5 5.625 10.5ZM12.375 10.5C12.9963 10.5 13.5 9.9963 13.5 9.375C13.5 8.7537 12.9963 8.25 12.375 8.25C11.7537 8.25 11.25 8.7537 11.25 9.375C11.25 9.9963 11.7537 10.5 12.375 10.5Z" fill="white"/>
</svg>
