<svg width="16" height="16" viewBox="0 0 16 16" fill="none" xmlns="http://www.w3.org/2000/svg">
<path d="M15.9785 3.5653C15.9925 3.4683 16 3.3558 16 3.2418C16 3.1278 15.992 3.0153 15.977 2.9058L15.9785 2.9183C15.9495 2.8033 15.921 2.6738 15.892 2.5303C15.8635 2.3838 15.8185 2.2538 15.7585 2.1328L15.7625 2.1418C15.648 1.9103 15.526 1.7128 15.3885 1.5273L15.396 1.5378C15.255 1.3543 15.091 1.1978 14.907 1.0678L14.9 1.0633C14.7635 0.953301 14.607 0.858801 14.4385 0.787801L14.4255 0.782801C14.263 0.713801 14.074 0.660801 13.877 0.633301L13.865 0.631801C13.7285 0.604301 13.571 0.588801 13.4105 0.588801C13.4035 0.588801 13.3965 0.588801 13.3895 0.588801H13.3905C13.2075 0.588801 13.0285 0.604301 12.854 0.634801L12.8725 0.632301C12.6255 0.694301 12.41 0.775301 12.2075 0.877801L12.2255 0.869301C12.0055 0.978801 11.822 1.0863 11.646 1.2043L11.6645 1.1928C11.4918 1.3078 11.3193 1.41563 11.147 1.5163C10.9935 1.6073 10.8095 1.7013 10.619 1.7838L10.586 1.7968L10.543 1.8183V6.3693C10.543 6.3723 10.543 6.3758 10.543 6.3793C10.543 6.5513 10.5275 6.7193 10.4975 6.8823L10.5 6.8653C10.4685 7.0373 10.4235 7.1893 10.365 7.3343L10.3705 7.3183C10.2285 7.6338 10.048 7.9043 9.82951 8.1398L9.83151 8.1378C9.60951 8.3703 9.34501 8.5593 9.04901 8.6923L9.03351 8.6988C8.93301 8.7503 8.81201 8.8013 8.68651 8.8438L8.66651 8.8498C8.54601 8.8908 8.40751 8.9143 8.26351 8.9143C8.26101 8.9143 8.25901 8.9143 8.25651 8.9143C8.20101 8.9328 8.13801 8.9433 8.07201 8.9433C8.03851 8.9433 8.00551 8.9408 7.97351 8.9353L7.97701 8.9358C7.88251 8.9223 7.77301 8.9143 7.66201 8.9143C7.65901 8.9143 7.65601 8.9143 7.65301 8.9143H7.65351C7.46751 8.8838 7.30751 8.8463 7.15151 8.7993L7.17901 8.8063C7.01451 8.7553 6.87151 8.6893 6.73951 8.6073L6.74751 8.6118C6.48501 8.4648 6.26301 8.2773 6.08201 8.0553L6.07851 8.0513C5.89701 7.8283 5.74451 7.5718 5.63251 7.2948L5.62551 7.2748C5.59651 7.1883 5.56801 7.1098 5.53901 7.0373C5.51151 6.9693 5.49601 6.8903 5.49601 6.8078C5.49601 6.8053 5.49601 6.8023 5.49601 6.7998C5.46735 6.58413 5.45301 6.4768 5.45301 6.4768V1.8178C5.45301 1.8038 5.43901 1.7963 5.41001 1.7963C5.26635 1.70997 5.13701 1.63813 5.02201 1.5808C4.89001 1.5133 4.77701 1.4418 4.67151 1.3613L4.67701 1.3653C4.50435 1.27897 4.33901 1.19263 4.18101 1.1063C4.02301 1.01997 3.87201 0.933634 3.72801 0.847301C3.52851 0.743301 3.29751 0.661301 3.05451 0.612801L3.03801 0.609801C2.90601 0.584801 2.75451 0.570801 2.59951 0.570801C2.49551 0.570801 2.39351 0.577301 2.29251 0.589801L2.30451 0.588801C2.06301 0.618301 1.84451 0.671301 1.63601 0.746301L1.65701 0.739801C1.44151 0.818801 1.25551 0.928301 1.09351 1.0658L1.09601 1.0638C0.922012 1.1803 0.773012 1.3158 0.646012 1.4703L0.643012 1.4738C0.523012 1.6183 0.415512 1.7813 0.326512 1.9548L0.319512 1.9698C0.245512 2.1118 0.173012 2.2828 0.112012 2.4598L0.103512 2.4873C0.0485117 2.6503 0.0170117 2.8378 0.0170117 3.0333C0.0170117 3.0388 0.0170117 3.0438 0.0170117 3.0488V3.0478C0.00601172 3.1183 -0.000488281 3.1993 -0.000488281 3.2818C-0.000488281 3.4053 0.0135117 3.5253 0.0405117 3.6408L0.0385117 3.6303C0.0815117 3.8173 0.131845 3.99697 0.189512 4.1693C0.287012 4.3918 0.402512 4.5833 0.539012 4.7578L0.534512 4.7518C0.683012 4.9423 0.853512 5.1063 1.04501 5.2428L1.05251 5.2478L2.08801 5.9378C2.20051 6.0508 2.32051 6.1563 2.44601 6.2548L2.45451 6.2613C2.58901 6.3663 2.70851 6.4718 2.82101 6.5848L3.25251 7.0163C3.39401 7.1578 3.52151 7.3133 3.63351 7.4798L3.64051 7.4908C3.75551 7.63447 3.85618 7.77113 3.94251 7.9008C4.02885 8.03047 4.11518 8.16713 4.20151 8.3108C4.33651 8.4978 4.45901 8.7103 4.55901 8.9353L4.56801 8.9583C4.66868 9.1883 4.76218 9.4183 4.84851 9.6483C4.96351 9.96463 5.06418 10.2738 5.15051 10.5758C5.23051 10.8438 5.29151 11.1588 5.32151 11.4833L5.32301 11.5033C5.35001 11.5803 5.36601 11.6693 5.36601 11.7618C5.36601 11.8543 5.38201 11.9433 5.41101 12.0263L5.40951 12.0208C5.40951 12.1428 5.41751 12.2623 5.43251 12.3798L5.43101 12.3658C5.44451 12.4693 5.45251 12.5893 5.45251 12.7108L5.53901 13.2283C5.57301 13.4278 5.61801 13.6018 5.67551 13.7703L5.66851 13.7463C5.73301 13.9678 5.82151 14.1613 5.93301 14.3383L5.92751 14.3288C6.04701 14.5208 6.19001 14.6843 6.35551 14.8223L6.35901 14.8248C6.69451 15.1268 7.12451 15.3303 7.59951 15.3848L7.61001 15.3858C7.72601 15.4118 7.86001 15.4273 7.99701 15.4288H7.99851C8.12101 15.4288 8.24001 15.4128 8.35351 15.3833L8.34351 15.3853C8.34801 15.3853 8.35301 15.3853 8.35801 15.3853C8.52351 15.3853 8.68151 15.3538 8.82651 15.2958L8.81801 15.2988C8.96168 15.2411 9.11985 15.1693 9.29251 15.0833C9.59301 14.8968 9.83901 14.6503 10.0205 14.3593L10.026 14.3498C10.164 14.1853 10.274 13.9913 10.346 13.7798L10.3495 13.7673C10.416 13.5753 10.469 13.3493 10.4985 13.1158L10.5005 13.0983C10.501 12.9988 10.509 12.9018 10.5235 12.8068L10.522 12.8178C10.535 12.7338 10.543 12.6368 10.5435 12.5383C10.5722 12.3656 10.5937 12.1926 10.608 12.0203C10.622 11.8408 10.645 11.6783 10.677 11.5193L10.6725 11.5458C10.7012 11.3731 10.73 11.1935 10.759 11.0068C10.791 10.8013 10.836 10.6193 10.8955 10.4443L10.8885 10.4678C11.0322 10.0078 11.104 9.7778 11.104 9.7778L11.363 9.0878C11.478 8.8578 11.593 8.63497 11.708 8.4193C11.8385 8.1768 11.967 7.9723 12.108 7.7768L12.0965 7.7938C12.2692 7.59247 12.4345 7.3983 12.5925 7.2113C12.7505 7.0243 12.9158 6.83013 13.0885 6.6288C13.2035 6.54247 13.3113 6.45613 13.412 6.3698C13.5127 6.28347 13.6062 6.19713 13.6925 6.1108L14.0375 5.8518C14.1375 5.7748 14.251 5.7033 14.37 5.6418L14.3825 5.6358L14.814 5.3338L15.2455 4.9888C15.3615 4.8718 15.468 4.7453 15.563 4.6098L15.569 4.6008C15.6655 4.4643 15.746 4.3073 15.8025 4.1393L15.8065 4.1263V4.1693C15.885 3.9943 15.945 3.7913 15.9775 3.5788L15.9785 3.5653Z" fill="white"/>
</svg>
