<svg width="20" height="20" viewBox="0 0 20 20" fill="none" xmlns="http://www.w3.org/2000/svg">
<path d="M7.10085 11.5376C6.23415 11.5376 5.52665 10.7506 5.52665 9.78664C5.52665 8.82272 6.21646 8.03556 7.10085 8.03556C7.97635 8.03556 8.69266 8.82272 8.675 9.78664C8.675 10.7506 7.97635 11.5376 7.10085 11.5376ZM12.9121 11.5376C12.0453 11.5376 11.337 10.7506 11.337 9.78664C11.337 8.82272 12.0277 8.03556 12.9121 8.03556C13.7876 8.03556 14.5039 8.82272 14.4862 9.78664C14.4862 10.7506 13.7964 11.5376 12.9121 11.5376ZM8.43808 3.60194L8.18079 3.13281L7.65302 3.22077C6.43295 3.42412 5.27248 3.78845 4.1882 4.28784L3.99742 4.3757L3.87955 4.54955C1.70183 7.76148 1.10516 10.9234 1.4006 14.0296L1.4328 14.3682L1.70793 14.5681C3.15742 15.6216 4.56214 16.2652 5.93972 16.6876L6.59747 16.8891L7.52544 14.625C9.11675 15.0183 10.883 15.0185 12.4745 14.6254L13.3967 16.8897L14.056 16.6875C15.4314 16.2656 16.8451 15.6221 18.2892 14.5671L18.5608 14.3686L18.5946 14.034C18.9579 10.4339 18.0137 7.29758 16.1292 4.54657L16.011 4.374L15.8208 4.287C14.7309 3.78851 13.5713 3.42431 12.3594 3.22091L11.8447 3.13453L11.5826 3.58588C11.5097 3.71151 11.4349 3.85334 11.364 3.99686C10.4537 3.90339 9.547 3.90319 8.64416 3.99657C8.57383 3.8556 8.50241 3.7193 8.43808 3.60194ZM5.59563 13.8413C5.76062 13.9364 5.93344 14.0293 6.10497 14.1146L5.73066 15.0278C4.79687 14.6877 3.84897 14.2192 2.87333 13.5459C2.68627 10.931 3.21776 8.29197 5.0103 5.57135C5.75835 5.24216 6.54491 4.98513 7.36371 4.81026C7.41392 4.91473 7.46062 5.01669 7.49899 5.10711L7.7264 5.64312L8.30249 5.55862C9.42966 5.3933 10.5647 5.39309 11.7106 5.55884L12.2857 5.64202L12.5126 5.10711C12.5521 5.014 12.5976 4.91236 12.6456 4.81049C13.4607 4.98552 14.2487 5.2429 15.0027 5.5729C16.5654 7.92328 17.3537 10.5448 17.1242 13.5455C16.1534 14.2182 15.2022 14.6869 14.2664 15.0274L13.8949 14.1153C14.0669 14.0299 14.2402 13.9366 14.4057 13.8413C14.8139 13.6061 15.2536 13.3128 15.5338 13.0326L14.4675 11.9663C14.3311 12.1027 14.0312 12.3168 13.6529 12.5347C13.2827 12.7481 12.9153 12.9205 12.6807 12.9981C11.0108 13.5501 8.99058 13.5501 7.32069 12.9981C7.08604 12.9205 6.7187 12.7481 6.34843 12.5347C5.97019 12.3168 5.67026 12.1027 5.5338 11.9663L4.46754 13.0326C4.74775 13.3128 5.18741 13.6061 5.59563 13.8413Z" fill="white"/>
</svg>
