<svg width="16" height="16" viewBox="0 0 16 16" fill="none" xmlns="http://www.w3.org/2000/svg">
<path d="M0.787781 8C1.41479 4.58651 4.40544 2 8.00022 2C11.595 2 14.5856 4.58651 15.2126 8C14.5856 11.4135 11.595 14 8.00022 14C4.40544 14 1.41479 11.4135 0.787781 8ZM8.00022 11.3333C9.84116 11.3333 11.3336 9.84093 11.3336 8C11.3336 6.15905 9.84116 4.66667 8.00022 4.66667C6.15925 4.66667 4.66686 6.15905 4.66686 8C4.66686 9.84093 6.15925 11.3333 8.00022 11.3333ZM8.00022 10C6.89562 10 6.0002 9.1046 6.0002 8C6.0002 6.8954 6.89562 6 8.00022 6C9.10476 6 10.0002 6.8954 10.0002 8C10.0002 9.1046 9.10476 10 8.00022 10Z" fill="white"/>
</svg>
