<svg width="16" height="16" viewBox="0 0 16 16" fill="none" xmlns="http://www.w3.org/2000/svg">
<path d="M8 15.5C3.85786 15.5 0.5 12.1421 0.5 8C0.5 3.85786 3.85786 0.5 8 0.5C12.1421 0.5 15.5 3.85786 15.5 8C15.5 12.1421 12.1421 15.5 8 15.5ZM8 10.25C7.58579 10.25 7.25 10.5858 7.25 11C7.25 11.4142 7.58579 11.75 8 11.75C8.41421 11.75 8.75 11.4142 8.75 11C8.75 10.5858 8.41421 10.25 8 10.25ZM8.75 9.22293C8.75 9.10036 8.83116 8.99375 8.9455 8.94959C9.92802 8.57006 10.625 7.61641 10.625 6.5C10.625 5.05025 9.44975 3.875 8 3.875C6.99028 3.875 6.11369 4.44511 5.6746 5.281C5.48208 5.6475 5.75433 6.05087 6.16028 6.13206C6.56682 6.21337 6.95473 5.91302 7.2701 5.64389C7.46658 5.47622 7.72147 5.375 8 5.375C8.6213 5.375 9.125 5.87868 9.125 6.5C9.125 7.1213 8.6213 7.625 8 7.625C7.58577 7.625 7.25 7.96077 7.25 8.375V8.75C7.25 9.16421 7.58579 9.5 8 9.5H8.47293C8.62595 9.5 8.75 9.37595 8.75 9.22293Z" fill="white"/>
</svg>
