<svg width="16" height="16" viewBox="0 0 16 16" fill="none" xmlns="http://www.w3.org/2000/svg">
<g clip-path="url(#clip0_2719_10466)">
<path fill-rule="evenodd" clip-rule="evenodd" d="M5.36499 2.30762C5.36499 2.03147 5.58885 1.80762 5.86499 1.80762H10.6092C10.7589 1.80762 10.9008 1.87477 10.9958 1.99061C11.0908 2.10645 11.1288 2.25876 11.0995 2.40564L10.6253 4.77731C10.5786 5.01104 10.3733 5.17928 10.135 5.17928H8.73749V5.89551L8.91876 6.07678H10.135C10.4111 6.07678 10.635 6.30064 10.635 6.57678V8.94845C10.635 9.22459 10.4111 9.44845 10.135 9.44845H8.73749V13.2185C8.73749 13.4568 8.56923 13.662 8.33548 13.7088L5.96298 14.1829C5.8161 14.2123 5.6638 14.1742 5.54797 14.0793C5.43214 13.9843 5.36499 13.8424 5.36499 13.6926V2.30762ZM6.36499 2.80762V13.0828L7.73749 12.8085V8.94845C7.73749 8.67231 7.96135 8.44845 8.23749 8.44845H9.63499V7.07678H8.71166C8.57905 7.07678 8.45187 7.02411 8.3581 6.93034L7.88394 6.45617C7.79017 6.3624 7.73749 6.23523 7.73749 6.10262V4.67928C7.73749 4.40314 7.96135 4.17928 8.23749 4.17928H9.72506L9.9993 2.80762H6.36499Z" fill="white"/>
<path fill-rule="evenodd" clip-rule="evenodd" d="M1.43218 2.48327C1.52652 2.35647 1.67527 2.28174 1.83332 2.28174H5.86582C6.14196 2.28174 6.36582 2.5056 6.36582 2.78174V12.0701C6.36582 12.3144 6.18919 12.523 5.94817 12.5632L1.91567 13.2366C1.76259 13.2621 1.60632 13.2152 1.49271 13.1094C1.37909 13.0037 1.32101 12.8512 1.3355 12.6967L2.03807 5.20457L1.3544 2.9254C1.30899 2.77401 1.33783 2.61007 1.43218 2.48327ZM2.50531 3.28174L3.0239 5.01058C3.04239 5.07222 3.04881 5.13685 3.0428 5.20092L2.39179 12.1432L5.36582 11.6466V3.28174H2.50531ZM10.0239 2.68356C10.0707 2.4499 10.2759 2.28174 10.5142 2.28174H14.1666C14.3164 2.28174 14.4583 2.34889 14.5533 2.46472C14.6483 2.58055 14.6863 2.73285 14.657 2.87973L14.1958 5.18718L14.6655 12.236C14.6752 12.3802 14.6219 12.5216 14.5194 12.6236C14.4169 12.7256 14.2753 12.7782 14.1311 12.768L8.20194 12.3455C7.94026 12.3268 7.73748 12.1091 7.73748 11.8467V8.94924C7.73748 8.67309 7.96134 8.44924 8.23748 8.44924H9.63415V7.07674H8.71165C8.57904 7.07674 8.45187 7.02406 8.3581 6.93029L7.88393 6.45613C7.79016 6.36236 7.73748 6.23518 7.73748 6.10257V4.67924C7.73748 4.4031 7.96134 4.17924 8.23748 4.17924H9.72435L10.0239 2.68356ZM10.9239 3.28174L10.6244 4.77742C10.5776 5.01107 10.3724 5.17924 10.1342 5.17924H8.73748V5.89546L8.91876 6.07674H10.1342C10.4103 6.07674 10.6342 6.3006 10.6342 6.57674V8.94924C10.6342 9.22538 10.4103 9.44924 10.1342 9.44924H8.73748V11.3811L13.6296 11.7297L13.1936 5.18749C13.1907 5.14355 13.1936 5.09942 13.2022 5.05625L13.5568 3.28174H10.9239Z" fill="white"/>
</g>
<defs>
<clipPath id="clip0_2719_10466">
<rect width="16" height="16" fill="white"/>
</clipPath>
</defs>
</svg>
