<svg width="17" height="17" viewBox="0 0 17 17" fill="none" xmlns="http://www.w3.org/2000/svg">
<path d="M1.5 16.5C0.947715 16.5 0.491265 16.0489 0.582257 15.5042C1.05661 12.6644 3.52554 10.5 6.5 10.5C9.47447 10.5 11.9434 12.6644 12.4177 15.5042C12.5087 16.0489 12.0523 16.5 11.5 16.5H1.5ZM6.5 9.75C4.01375 9.75 2 7.73625 2 5.25C2 2.76375 4.01375 0.75 6.5 0.75C8.98625 0.75 11 2.76375 11 5.25C11 7.73625 8.98625 9.75 6.5 9.75ZM13.6798 14.3252C13.3917 13.3728 14.1932 12.4146 14.8503 13.1618C15.4195 13.8089 15.8424 14.588 16.0672 15.4471C16.2135 16.0064 15.7478 16.5 15.1697 16.5H15C14.4477 16.5 14.007 16.0502 13.9343 15.5028C13.8807 15.0992 13.795 14.7058 13.6798 14.3252ZM11 9.75C10.805 9.75 10.7265 9.51313 10.8605 9.37142C11.8768 8.29652 12.5 6.84604 12.5 5.25C12.5 4.94968 12.4779 4.65452 12.4353 4.36604C12.3106 3.5214 13.0209 2.72727 13.6297 3.32595C14.3213 4.00614 14.75 4.95277 14.75 6C14.75 8.07188 13.0719 9.75 11 9.75Z" fill="white"/>
</svg>
