<svg width="22" height="22" viewBox="0 0 22 22" fill="none" xmlns="http://www.w3.org/2000/svg">
<path d="M10.7452 2.70703C13.4781 2.70703 15.9184 3.95918 17.524 5.92105L11.9833 11.462L17.524 17.0029C15.9184 18.9649 13.4781 20.217 10.7452 20.217C5.90997 20.217 1.99023 16.2972 1.99023 11.462C1.99023 6.62677 5.90997 2.70703 10.7452 2.70703ZM10.7452 4.45803C6.87702 4.45803 3.74123 7.59382 3.74123 11.462C3.74123 15.3302 6.87702 18.466 10.7452 18.466C12.2539 18.466 13.6823 17.9872 14.8578 17.133L15.0395 16.9952L9.50717 11.462L15.0395 5.92799L14.8578 5.79107C13.7515 4.9871 12.4211 4.51566 11.0106 4.46297L10.7452 4.45803ZM10.7452 5.33353C11.4705 5.33353 12.0585 5.92148 12.0585 6.64677C12.0585 7.37206 11.4705 7.96002 10.7452 7.96002C10.02 7.96002 9.43197 7.37206 9.43197 6.64677C9.43197 5.92148 10.02 5.33353 10.7452 5.33353Z" fill="white"/>
</svg>
