<svg width="22" height="22" viewBox="0 0 22 22" fill="none" xmlns="http://www.w3.org/2000/svg">
<path d="M16.081 6.1811L17.3534 4.90867L18.5915 6.14681L17.3191 7.41924C18.3974 8.76723 19.0422 10.4771 19.0422 12.3375C19.0422 16.6893 15.5144 20.217 11.1627 20.217C6.81097 20.217 3.2832 16.6893 3.2832 12.3375C3.2832 7.9858 6.81097 4.45804 11.1627 4.45804C13.0231 4.45804 14.733 5.10282 16.081 6.1811ZM11.1627 18.466C14.5474 18.466 17.2912 15.7222 17.2912 12.3375C17.2912 8.95285 14.5474 6.20903 11.1627 6.20903C7.77802 6.20903 5.0342 8.95285 5.0342 12.3375C5.0342 15.7222 7.77802 18.466 11.1627 18.466ZM10.2872 7.96003H12.0382V13.213H10.2872V7.96003ZM7.66069 1.83154H14.6647V3.58254H7.66069V1.83154Z" fill="white"/>
</svg>
