<svg width="14" height="16" viewBox="0 0 14 16" fill="none" xmlns="http://www.w3.org/2000/svg">
<path d="M8 0.5C10.0157 0.5 11.8456 1.29516 13.1933 2.5889C13.5639 2.94471 13.5304 3.53 13.1671 3.89331L9.7677 7.29291C9.3772 7.68343 9.3772 8.31657 9.76771 8.70709L13.1671 12.1067C13.5304 12.47 13.5639 13.0553 13.1933 13.4111C11.8456 14.7048 10.0157 15.5 8 15.5C3.85786 15.5 0.5 12.1421 0.5 8C0.5 3.85786 3.85786 0.5 8 0.5ZM8 2.75C7.3787 2.75 6.875 3.25368 6.875 3.875C6.875 4.49632 7.3787 5 8 5C8.6213 5 9.125 4.49632 9.125 3.875C9.125 3.25368 8.6213 2.75 8 2.75Z" fill="white"/>
</svg>
