<svg width="16" height="16" viewBox="0 0 16 16" fill="none" xmlns="http://www.w3.org/2000/svg">
<path d="M13.3367 8.66878V13.3354C13.3367 13.7036 13.0382 14.0021 12.67 14.0021H3.33667C2.96848 14.0021 2.67 13.7036 2.67 13.3354V8.66878H13.3367ZM9.67002 1.33545C10.9587 1.33545 12.0033 2.38012 12.0033 3.66878C12.0033 4.02692 11.9227 4.36621 11.7785 4.66948L14.0033 4.66878C14.3715 4.66878 14.67 4.96726 14.67 5.33545V7.33544C14.67 7.70364 14.3715 8.00211 14.0033 8.00211H2.00334C1.63515 8.00211 1.33667 7.70364 1.33667 7.33544V5.33545C1.33667 4.96726 1.63515 4.66878 2.00334 4.66878L4.22821 4.66948C4.08402 4.36621 4.00334 4.02692 4.00334 3.66878C4.00334 2.38012 5.04801 1.33545 6.33667 1.33545C6.99002 1.33545 7.58062 1.60396 8.00415 2.03664C8.42608 1.60396 9.01668 1.33545 9.67002 1.33545ZM6.33667 2.66878C5.78439 2.66878 5.33667 3.1165 5.33667 3.66878C5.33667 4.18858 5.73326 4.61575 6.24036 4.6642L6.33667 4.66878H7.33668V3.66878C7.33668 3.14898 6.94008 2.72182 6.43298 2.67336L6.33667 2.66878ZM9.67002 2.66878L9.57368 2.67336C9.09828 2.71879 8.72002 3.09707 8.67455 3.57248L8.67002 3.66878V4.66878H9.67002L9.76628 4.6642C10.2734 4.61575 10.67 4.18858 10.67 3.66878C10.67 3.14898 10.2734 2.72182 9.76628 2.67336L9.67002 2.66878Z" fill="white"/>
</svg>
