<svg width="59" height="43" viewBox="0 0 59 43" fill="none" xmlns="http://www.w3.org/2000/svg">
<path d="M0 0.390625H53.3353C56.2232 0.390625 58.5643 2.73171 58.5643 5.61958V36.9933C58.5643 39.8812 56.2232 42.2222 53.3353 42.2222H0V0.390625Z" fill="#C28C30"/>
<g clip-path="url(#clip0_2_104)">
<path d="M12.9732 17.7514L15.1689 19.2152L17.3579 16.1506C17.5258 15.9157 17.8524 15.8612 18.0873 16.0291C18.1343 16.0626 18.1753 16.1037 18.2089 16.1506L20.3979 19.2152L22.5937 17.7514C22.834 17.5912 23.1586 17.6561 23.3188 17.8964C23.3877 17.9997 23.4175 18.1242 23.403 18.2475L22.5438 25.551C22.5128 25.8144 22.2896 26.0129 22.0245 26.0129H13.5423C13.2772 26.0129 13.054 25.8144 13.023 25.551L12.1638 18.2475C12.13 17.9607 12.3352 17.7009 12.622 17.6671C12.7453 17.6526 12.8698 17.6825 12.9732 17.7514ZM17.7834 22.8755C18.361 22.8755 18.8292 22.4073 18.8292 21.8297C18.8292 21.2521 18.361 20.7839 17.7834 20.7839C17.2058 20.7839 16.7376 21.2521 16.7376 21.8297C16.7376 22.4073 17.2058 22.8755 17.7834 22.8755Z" fill="white"/>
</g>
<defs>
<clipPath id="clip0_2_104">
<rect width="12.5495" height="12.5495" fill="white" transform="translate(11.5039 15.0312)"/>
</clipPath>
</defs>
</svg>
