<svg width="14" height="110" viewBox="0 0 14 110" fill="none" xmlns="http://www.w3.org/2000/svg">
<path d="M1.8018 0.0102157C1.79812 0.603792 1.8835 1.23418 1.87981 1.82776C2.03186 14.3028 2.55401 26.7607 3.76495 39.2482C5.48353 58.3216 7.66129 77.4145 11.4224 96.3118C12.1404 99.8392 12.9098 103.302 13.6794 106.767C13.8162 107.333 13.9153 107.799 13.963 108.329C14.0862 109.06 13.942 109.681 12.907 109.932C11.8719 110.185 11.0839 109.689 10.7175 109.113C10.1354 108.362 9.60448 107.548 9.35475 106.68C8.59166 104.239 7.79093 101.697 7.39794 99.2399C2.54432 71.3895 -0.561645 43.5813 0.0848689 15.5385C0.165841 10.7262 0.705989 5.93349 1.01656 1.13097C1.09555 0.738533 1.17455 0.3461 1.20211 0.0174287C1.34262 -0.00951879 1.57221 0.000351386 1.8018 0.0102157Z" fill="#008080"/>
</svg>
