<svg width="150" height="14" viewBox="0 0 150 14" fill="none" xmlns="http://www.w3.org/2000/svg">
<path d="M149.392 1.75167C148.586 1.74809 147.73 1.8311 146.924 1.82751C129.98 1.97533 113.059 2.48294 96.098 3.66019C70.1919 5.33096 44.2593 7.44813 18.5923 11.1046C13.8013 11.8027 9.09732 12.5507 4.39232 13.2988C3.62332 13.4318 2.99033 13.5282 2.27032 13.5746C1.27733 13.6943 0.43431 13.5541 0.0923151 12.5479C-0.250687 11.5416 0.422317 10.7756 1.20532 10.4194C2.22533 9.85335 3.33131 9.33725 4.51031 9.09447C7.82532 8.35261 11.2773 7.57416 14.6153 7.1921C52.4426 2.47352 90.2126 -0.546021 128.301 0.0825067C134.838 0.161226 141.347 0.686346 147.87 0.988277C148.403 1.06507 148.936 1.14187 149.383 1.16867C149.419 1.30527 149.406 1.52847 149.392 1.75167Z" fill="#FF5733"/>
</svg>
