<svg width="14" height="105" viewBox="0 0 14 105" fill="none" xmlns="http://www.w3.org/2000/svg">
<path d="M1.8018 104.99C1.79812 104.424 1.8835 103.822 1.87981 103.255C2.03186 91.3473 2.55401 79.4557 3.76495 67.5358C5.48353 49.3294 7.66129 31.1044 11.4224 13.066C12.1404 9.69897 12.9098 6.39307 13.6794 3.08648C13.8162 2.54604 13.9153 2.10118 13.963 1.59518C14.0862 0.897308 13.942 0.304855 12.907 0.0644989C11.8719 -0.176552 11.0839 0.296425 10.7175 0.846703C10.1354 1.56355 9.60448 2.34082 9.35475 3.1694C8.59166 5.49913 7.79093 7.92516 7.39794 10.271C2.54432 36.8555 -0.561645 63.3996 0.0848689 90.1678C0.165841 94.7614 0.705989 99.3362 1.01656 103.92C1.09555 104.295 1.17455 104.67 1.20211 104.983C1.34262 105.009 1.57221 105 1.8018 104.99Z" fill="#FF5733"/>
</svg>
