<svg width="20" height="20" viewBox="0 0 20 20" fill="none" xmlns="http://www.w3.org/2000/svg">
<path d="M12.1083 7.8916L7.8916 12.1083C7.34994 11.5666 7.0166 10.8249 7.0166 9.99993C7.0166 8.34993 8.34993 7.0166 9.99993 7.0166C10.8249 7.0166 11.5666 7.34994 12.1083 7.8916Z" stroke="#667085" stroke-linecap="round" stroke-linejoin="round"/>
<path d="M4.66654 14.7999C3.8332 14.0832 3.07487 13.1999 2.4082 12.1582C1.6582 10.9832 1.6582 9.00824 2.4082 7.83324C3.39154 6.29157 4.59154 5.08324 5.9332 4.2749" stroke="#667085" stroke-linecap="round" stroke-linejoin="round"/>
<path d="M14.85 4.8084C13.3917 3.7084 11.725 3.1084 10 3.1084" stroke="#667085" stroke-width="1.5" stroke-linecap="round" stroke-linejoin="round"/>
<path d="M7.0166 16.2751C7.9666 16.6751 8.97493 16.8917 9.99993 16.8917C12.9416 16.8917 15.6833 15.1584 17.5916 12.1584C18.3416 10.9834 18.3416 9.0084 17.5916 7.8334C17.3166 7.40006 17.0166 6.99173 16.7083 6.6084" stroke="#667085" stroke-width="1.5" stroke-linecap="round" stroke-linejoin="round"/>
<path d="M12.9252 10.5833C12.7085 11.7583 11.7502 12.7166 10.5752 12.9333" stroke="#667085" stroke-width="1.5" stroke-linecap="round" stroke-linejoin="round"/>
<path d="M7.8915 12.1084L1.6665 18.3334" stroke="#667085" stroke-width="1.5" stroke-linecap="round" stroke-linejoin="round"/>
<path d="M18.3334 1.66675L12.1084 7.89175" stroke="#667085" stroke-width="1.5" stroke-linecap="round" stroke-linejoin="round"/>
</svg>
