<svg width="14" height="14" viewBox="0 0 14 14" fill="none" xmlns="http://www.w3.org/2000/svg">
<path d="M4.08268 0.583496V1.75016H1.74935C1.42719 1.75016 1.16602 2.01133 1.16602 2.3335V11.6668C1.16602 11.989 1.42719 12.2502 1.74935 12.2502H6.27287C5.63244 11.4512 5.24935 10.4371 5.24935 9.3335C5.24935 6.75615 7.33867 4.66683 9.91602 4.66683C11.0196 4.66683 12.0337 5.04992 12.8327 5.69036V2.3335C12.8327 2.01133 12.5715 1.75016 12.2493 1.75016H9.91602V0.583496H8.74935V1.75016H5.24935V0.583496H4.08268ZM13.416 9.3335C13.416 11.2665 11.849 12.8335 9.91602 12.8335C7.98302 12.8335 6.41602 11.2665 6.41602 9.3335C6.41602 7.4005 7.98302 5.8335 9.91602 5.8335C11.849 5.8335 13.416 7.4005 13.416 9.3335ZM9.33268 7.00016V9.57511L10.6702 10.9126L11.4952 10.0877L10.4993 9.09188V7.00016H9.33268Z" fill="white"/>
</svg>
