<svg width="20" height="20" viewBox="0 0 20 20" fill="none" xmlns="http://www.w3.org/2000/svg">
<path d="M10.0013 7.49935C8.62015 7.49935 7.5013 8.6186 7.5013 9.99935C7.5013 11.3804 8.62057 12.4993 10.0013 12.4993C11.3824 12.4993 12.5013 11.3801 12.5013 9.99935C12.5013 8.61826 11.3821 7.49935 10.0013 7.49935ZM10.0013 5.83268C12.3017 5.83268 14.168 7.69693 14.168 9.99935C14.168 12.2998 12.3037 14.166 10.0013 14.166C7.70091 14.166 5.83464 12.3018 5.83464 9.99935C5.83464 7.69896 7.69889 5.83268 10.0013 5.83268ZM15.418 5.62364C15.418 6.19873 14.9507 6.66532 14.3763 6.66532C13.8012 6.66532 13.3347 6.19801 13.3347 5.62364C13.3347 5.04926 13.8019 4.58268 14.3763 4.58268C14.9499 4.58196 15.418 5.04926 15.418 5.62364ZM10.0013 3.33268C7.93924 3.33268 7.60314 3.33814 6.64404 3.38085C5.99061 3.41152 5.55259 3.49941 5.14562 3.65741C4.78395 3.79767 4.52306 3.96517 4.24509 4.24314C3.96604 4.52218 3.79885 4.78237 3.65915 5.14421C3.50079 5.55211 3.41293 5.98944 3.3828 6.64197C3.33968 7.56201 3.33464 7.88356 3.33464 9.99935C3.33464 12.0614 3.34009 12.3975 3.38279 13.3565C3.41349 14.0097 3.50149 14.4483 3.6591 14.8543C3.79974 15.2165 3.96757 15.478 4.2442 15.7547C4.52434 16.0344 4.78531 16.2022 5.14371 16.3405C5.55564 16.4998 5.99339 16.5878 6.64392 16.6178C7.56397 16.6609 7.88551 16.666 10.0013 16.666C12.0634 16.666 12.3995 16.6605 13.3585 16.6178C14.0102 16.5873 14.4492 16.499 14.8563 16.3415C15.2175 16.2013 15.4798 16.0328 15.7567 15.7564C16.0368 15.4758 16.2042 15.2155 16.3427 14.8563C16.5016 14.4458 16.5897 14.0075 16.6198 13.3568C16.6629 12.4367 16.668 12.1151 16.668 9.99935C16.668 7.93728 16.6625 7.60119 16.6198 6.64216C16.5892 5.99023 16.5009 5.55059 16.3432 5.14367C16.2033 4.783 16.0352 4.52131 15.7575 4.24314C15.478 3.96364 15.2185 3.79679 14.8564 3.6572C14.4488 3.49897 14.0108 3.41098 13.3587 3.38086C12.4387 3.33772 12.1171 3.33268 10.0013 3.33268ZM10.0013 1.66602C12.2652 1.66602 12.5478 1.67435 13.4367 1.71602C14.3235 1.75699 14.9284 1.89727 15.4597 2.10352C16.0089 2.31532 16.4728 2.60143 16.936 3.06462C17.3985 3.52782 17.6847 3.9931 17.8972 4.54101C18.1027 5.07157 18.243 5.67712 18.2847 6.56393C18.3242 7.45282 18.3347 7.73546 18.3347 9.99935C18.3347 12.2633 18.3263 12.5458 18.2847 13.4348C18.2437 14.3216 18.1027 14.9264 17.8972 15.4577C17.6853 16.007 17.3985 16.4708 16.936 16.9341C16.4728 17.3966 16.0068 17.6827 15.4597 17.8952C14.9284 18.1008 14.3235 18.241 13.4367 18.2827C12.5478 18.3223 12.2652 18.3327 10.0013 18.3327C7.73741 18.3327 7.45477 18.3243 6.56589 18.2827C5.67908 18.2417 5.07491 18.1008 4.54297 17.8952C3.99435 17.6833 3.52977 17.3966 3.06658 16.9341C2.60339 16.4708 2.31797 16.0049 2.10547 15.4577C1.89922 14.9264 1.75964 14.3216 1.71797 13.4348C1.67839 12.5458 1.66797 12.2633 1.66797 9.99935C1.66797 7.73546 1.6763 7.45282 1.71797 6.56393C1.75894 5.67643 1.89922 5.07226 2.10547 4.54101C2.31727 3.99241 2.60339 3.52782 3.06658 3.06462C3.52977 2.60143 3.99505 2.31602 4.54297 2.10352C5.07422 1.89727 5.67839 1.75768 6.56589 1.71602C7.45477 1.67643 7.73741 1.66602 10.0013 1.66602Z" fill="white"/>
</svg>
