<svg width="12" height="19" viewBox="0 0 12 19" fill="none" xmlns="http://www.w3.org/2000/svg">
<path d="M2.38306 7.81222V9.71333C2.38306 10.3284 3.22666 10.8052 3.81823 10.8052H7.2764C7.86849 10.8052 8.5174 10.3284 8.5174 9.71333V7.78795C9.58424 7.04516 10.9703 5.72067 10.9703 4.20976C10.9703 1.88484 8.52674 0 5.56465 0C2.60336 0 0 1.88484 0 4.20976C0 5.73721 1.31622 7.0745 2.38306 7.81222ZM7.39828 3.21466C8.05359 3.21466 8.58461 3.76675 8.58461 4.44793C8.58461 5.12911 8.05359 5.68093 7.39828 5.68093C6.74298 5.68093 6.21142 5.12911 6.21142 4.44793C6.21142 3.76675 6.74298 3.21466 7.39828 3.21466ZM3.76889 3.21466C4.42446 3.21466 4.95548 3.76675 4.95548 4.44793C4.95548 5.12911 4.42446 5.68093 3.76889 5.68093C3.11331 5.68093 2.58229 5.12911 2.58229 4.44793C2.58229 3.76675 3.11358 3.21466 3.76889 3.21466Z" fill="white"/>
<path d="M10.7119 15.6962C10.3308 15.4687 9.85657 15.5668 9.58399 15.9055L7.06251 14.4005L9.55679 12.9117C9.82377 13.279 10.3177 13.3921 10.7116 13.1568C11.1389 12.9018 11.2864 12.3354 11.041 11.8913C10.9253 11.6816 10.7421 11.5379 10.5364 11.4704C10.5839 11.2517 10.5564 11.0149 10.4407 10.8052C10.1953 10.3612 9.65067 10.2083 9.22313 10.463C8.842 10.6908 8.68438 11.1658 8.82894 11.5808L5.5836 13.5179L2.33854 11.5808C2.48283 11.1656 2.32547 10.6906 1.94434 10.463C1.51733 10.2083 0.972177 10.3612 0.726803 10.8052C0.610784 11.0149 0.584113 11.2517 0.631054 11.4704C0.42542 11.5379 0.24219 11.6816 0.126438 11.8913C-0.118669 12.3354 0.0285552 12.9018 0.455825 13.1568C0.849757 13.3921 1.3437 13.279 1.61042 12.9117L4.10469 14.4005L1.58294 15.9055C1.31063 15.5666 0.836688 15.4687 0.455559 15.6962C0.0282886 15.9509 -0.118936 16.5176 0.125905 16.9615C0.24219 17.1714 0.425154 17.3151 0.630787 17.3829C0.583046 17.601 0.610517 17.8381 0.72627 18.0475C0.971377 18.4916 1.51653 18.6447 1.94407 18.3897C2.338 18.1544 2.49296 17.6541 2.32253 17.2295L5.5836 15.2833L8.84441 17.2298C8.67398 17.6544 8.82894 18.1547 9.22313 18.39C9.65094 18.6449 10.1956 18.4918 10.4407 18.0478C10.557 17.8384 10.5839 17.6013 10.5364 17.3831C10.7421 17.3154 10.9253 17.1716 11.041 16.9617C11.2864 16.5176 11.1392 15.9509 10.7119 15.6962Z" fill="white"/>
</svg>
