<svg width="18" height="18" viewBox="0 0 18 18" fill="none" xmlns="http://www.w3.org/2000/svg">
<path d="M10.5 10.689V16.5H3C3 13.1863 5.68629 10.5 9 10.5C9.51795 10.5 10.0206 10.5656 10.5 10.689ZM9 9.75C6.51375 9.75 4.5 7.73625 4.5 5.25C4.5 2.76375 6.51375 0.75 9 0.75C11.4862 0.75 13.5 2.76375 13.5 5.25C13.5 7.73625 11.4862 9.75 9 9.75ZM14.25 12.4394L15.841 10.8484L16.9016 11.909L15.3106 13.5L16.9016 15.091L15.841 16.1516L14.25 14.5606L12.659 16.1516L11.5984 15.091L13.1894 13.5L11.5984 11.909L12.659 10.8484L14.25 12.4394Z" fill="white"/>
</svg>
