<svg width="18" height="14" viewBox="0 0 18 14" fill="none" xmlns="http://www.w3.org/2000/svg">
<path d="M10.4666 10.5724C10.0647 10.6731 9.75392 11.0165 9.75392 11.4307C9.75392 11.8843 10.1216 12.2519 10.5751 12.2519H12.7539C13.1681 12.2519 13.5039 12.5877 13.5039 13.0019C13.5039 13.4161 13.1681 13.7519 12.7539 13.7519H5.25391C4.83969 13.7519 4.50391 13.4161 4.50391 13.0019C4.50391 12.5877 4.83969 12.2519 5.25391 12.2519H7.43272C7.88626 12.2519 8.25392 11.8843 8.25392 11.4307C8.25392 11.0165 7.9431 10.6731 7.54127 10.5724C4.93449 9.91946 3.00391 7.56117 3.00391 4.75195V1.25195C3.00391 0.699668 3.45162 0.251953 4.00391 0.251953H14.0039C14.5562 0.251953 15.0039 0.699668 15.0039 1.25195V4.75195C15.0039 7.56117 13.0733 9.91946 10.4666 10.5724ZM0.753906 2.50195C0.753906 2.08774 1.08969 1.75195 1.50391 1.75195C1.91812 1.75195 2.25391 2.08774 2.25391 2.50195V4.00195C2.25391 4.41617 1.91812 4.75195 1.50391 4.75195C1.08969 4.75195 0.753906 4.41617 0.753906 4.00195V2.50195ZM15.7539 2.50195C15.7539 2.08774 16.0897 1.75195 16.5039 1.75195C16.9181 1.75195 17.2539 2.08774 17.2539 2.50195V4.00195C17.2539 4.41617 16.9181 4.75195 16.5039 4.75195C16.0897 4.75195 15.7539 4.41617 15.7539 4.00195V2.50195Z" fill="white"/>
</svg>
