<svg width="20" height="20" viewBox="0 0 20 20" fill="none" xmlns="http://www.w3.org/2000/svg">
<path d="M4.4 1.2002C4.2484 1.2002 4.11019 1.28569 4.04219 1.42129C3.97459 1.55689 3.98849 1.71884 4.07969 1.84004L5.2 3.33301V16.6674L3.67969 18.1604C3.58889 18.2816 3.57499 18.4435 3.64219 18.5791C3.71019 18.7147 3.8484 18.8002 4 18.8002H15.6C15.7216 18.8002 15.8365 18.745 15.9125 18.6502L17.9125 16.6502C18.0085 16.5298 18.0266 16.3656 17.9602 16.2268C17.8934 16.0888 17.754 16.0002 17.6 16.0002H9.2V1.6002C9.2 1.379 9.0212 1.2002 8.8 1.2002H4.4ZM10 2.8002V3.6002C13.97 3.6002 17.2 6.83019 17.2 10.8002C17.2 12.4578 16.6315 13.9818 15.6867 15.2002H16.6742C17.5098 13.9366 18 12.4254 18 10.8002C18 6.389 14.4112 2.8002 10 2.8002ZM10 4.4002V15.2002H14.6359C15.7263 14.0522 16.4 12.505 16.4 10.8002C16.4 7.2714 13.5288 4.4002 10 4.4002ZM4.4 5.09629C3.0176 6.45389 2.12292 8.30624 2.01172 10.365C2.00412 10.509 2 10.6542 2 10.8002C2 11.0362 2.01047 11.2702 2.03047 11.501C2.20087 13.453 3.0772 15.2053 4.4 16.5041V15.315C3.4012 14.079 2.8 12.5094 2.8 10.8002C2.8 9.09099 3.4012 7.52135 4.4 6.28535V5.09629ZM4.4 7.70879C3.8916 8.62599 3.6 9.67939 3.6 10.8002C3.6 11.921 3.8916 12.9744 4.4 13.8916V7.70879Z" fill="white"/>
</svg>
