<svg width="20" height="20" viewBox="0 0 20 20" fill="none" xmlns="http://www.w3.org/2000/svg">
  <!-- Outer Circle -->
  <circle cx="10" cy="10" r="10" fill="#22252C"/>

  <!-- Inner Icon (centered in the circle) -->
  <path d="M10 6.88144C10.922 7.60752 11.514 8.7339 11.514 10C11.514 11.2647 10.922 12.3911 10 13.1172C9.078 12.3911 8.486 11.2647 8.486 10C8.486 8.7339 9.078 7.60752 10 6.88144ZM9.493 6.54172C8.518 7.37623 7.9 8.61589 7.9 10C7.9 11.3831 8.517 12.622 9.491 13.4565C8.917 13.7797 8.255 13.964 7.549 13.964C5.359 13.964 3.583 12.1886 3.583 10C3.583 7.80995 5.359 6.0332 7.549 6.0332C8.256 6.0332 8.919 6.21793 9.493 6.54172ZM10.51 13.4565C11.484 12.622 12.1 11.3831 12.1 10C12.1 8.61589 11.482 7.37623 10.507 6.54172C11.081 6.21793 11.745 6.0332 12.452 6.0332C14.642 6.0332 16.417 7.80995 16.417 10C16.417 12.1886 14.642 13.964 12.452 13.964C11.746 13.964 11.084 13.7797 10.51 13.4565Z" fill="white"/>
</svg>
