<svg width="14" height="15" viewBox="0 0 14 15" fill="none" xmlns="http://www.w3.org/2000/svg">
<path fill-rule="evenodd" clip-rule="evenodd" d="M3.98153 10.0359C4.0351 10.0038 4.10195 10.0036 4.15571 10.0354C5.17305 10.6366 6.14359 10.9099 7.08054 10.899C8.01762 10.8881 8.93368 10.5927 9.84166 10.0368C9.89574 10.0037 9.96373 10.0033 10.0181 10.0359L12.2353 11.3642C12.2868 11.3951 12.3183 11.4508 12.3181 11.5109C12.3179 11.5709 12.2861 11.6264 12.2344 11.657C10.4975 12.683 8.75229 13.2203 7.00078 13.2301C5.24878 13.2399 3.50207 12.7219 1.76293 11.6555C1.71216 11.6244 1.68134 11.569 1.68164 11.5095C1.68195 11.4499 1.71334 11.3948 1.76442 11.3642L3.98153 10.0359ZM4.07026 10.3799L2.18357 11.5102C3.79484 12.4494 5.39924 12.8984 6.99887 12.8895C8.59683 12.8805 10.2005 12.4144 11.8117 11.5076L9.93089 10.3808C9.00878 10.9285 8.06266 11.2282 7.08451 11.2396C6.10276 11.2511 5.10063 10.9719 4.07026 10.3799Z" fill="white"/>
<path fill-rule="evenodd" clip-rule="evenodd" d="M6.88226 2.12332C6.93727 2.08913 7.00689 2.0891 7.06193 2.12323L12.2376 5.33293C12.2876 5.36399 12.3181 5.41874 12.3181 5.47768V7.69143C12.3181 7.75264 12.2853 7.80914 12.2321 7.83943C12.1789 7.86972 12.1135 7.86913 12.0609 7.83789L6.97269 4.81824L1.93957 7.83739C1.88695 7.86896 1.82143 7.86978 1.76803 7.83954C1.71464 7.80931 1.68164 7.7527 1.68164 7.69134V5.45006C1.68164 5.39118 1.71205 5.33648 1.76206 5.3054L6.88226 2.12332ZM6.97226 2.46844L2.02227 5.54473V7.39056L6.88461 4.47386C6.93829 4.44166 7.00531 4.4415 7.05914 4.47345L11.9775 7.3923V5.57246L6.97226 2.46844Z" fill="white"/>
<path fill-rule="evenodd" clip-rule="evenodd" d="M6.88558 6.43088C6.93875 6.39949 7.00474 6.39933 7.05806 6.43047L12.2337 9.45337C12.286 9.4839 12.3181 9.53989 12.3181 9.60043V11.5097C12.3181 11.5711 12.285 11.6278 12.2315 11.658C12.178 11.6882 12.1124 11.6872 12.0598 11.6555L6.9727 8.58547L1.94065 11.6551C1.88808 11.6871 1.82229 11.6883 1.76859 11.6582C1.71489 11.628 1.68164 11.5712 1.68164 11.5097V9.60043C1.68164 9.54018 1.71348 9.48441 1.76537 9.45377L6.88558 6.43088ZM6.97263 6.77505L2.02227 9.69767V11.2063L6.88353 8.24086C6.93774 8.20779 7.00585 8.20762 7.06022 8.24044L11.9775 11.2079V9.6982L6.97263 6.77505Z" fill="white"/>
</svg>
