<svg width="23" height="23" viewBox="0 0 23 23" fill="none" xmlns="http://www.w3.org/2000/svg">
<path fill-rule="evenodd" clip-rule="evenodd" d="M3.2367 22.0423L11.4931 13.7875L19.6335 21.9953C20.2462 22.6143 21.2381 22.6143 21.8492 21.9953C22.4603 21.3779 22.4603 20.3751 21.8492 19.7577L13.7197 11.5609L22.0403 3.24182C22.6609 2.62444 22.6609 1.62158 22.0403 1.00419C21.4214 0.386804 20.4154 0.386804 19.7964 1.00419L11.4884 9.3107L3.2038 0.957179C2.59111 0.339793 1.59922 0.339793 0.988104 0.957179C0.375418 1.57457 0.375418 2.57743 0.988104 3.19638L9.2617 11.5389L0.994371 19.8063C0.373851 20.4236 0.373851 21.4265 0.99437 22.0439C1.61176 22.6597 2.61618 22.6597 3.2367 22.0423Z" fill="white"/>
</svg>
