<svg width="12" height="15" viewBox="0 0 12 15" fill="none" xmlns="http://www.w3.org/2000/svg">
<path d="M11.3333 11.4446L11.5999 11.8002C11.7104 11.9474 11.6805 12.1564 11.5333 12.2668C11.4756 12.3101 11.4054 12.3335 11.3333 12.3335H0.666585C0.482492 12.3335 0.333252 12.1842 0.333252 12.0002C0.333252 11.928 0.356645 11.8578 0.399919 11.8002L0.666585 11.4446V5.66683C0.666585 2.72131 3.0544 0.333496 5.99992 0.333496C8.94545 0.333496 11.3333 2.72131 11.3333 5.66683V11.4446ZM4.33325 13.0002H7.66659C7.66659 13.9206 6.92039 14.6668 5.99992 14.6668C5.07945 14.6668 4.33325 13.9206 4.33325 13.0002Z" fill="white"/>
</svg>
