<svg width="20" height="20" viewBox="0 0 20 20" fill="none" xmlns="http://www.w3.org/2000/svg">
<path fill-rule="evenodd" clip-rule="evenodd" d="M17.5 10C17.5 14.1421 14.1421 17.5 10 17.5C5.85786 17.5 2.5 14.1421 2.5 10C2.5 5.85786 5.85786 2.5 10 2.5C14.1421 2.5 17.5 5.85786 17.5 10ZM10 5C10.4602 5 10.8333 5.3731 10.8333 5.83333V11.6667C10.8333 12.1269 10.4602 12.5 10 12.5C9.53976 12.5 9.16667 12.1269 9.16667 11.6667L9.16667 5.83333C9.16667 5.3731 9.53976 5 10 5ZM8.95833 13.9583C8.95833 14.5336 9.4247 15 10 15C10.5753 15 11.0417 14.5336 11.0417 13.9583C11.0417 13.383 10.5753 12.9167 10 12.9167C9.4247 12.9167 8.95833 13.383 8.95833 13.9583Z" fill="white"/>
</svg>
