<svg width="20" height="20" viewBox="0 0 20 20" fill="none" xmlns="http://www.w3.org/2000/svg">
<path fill-rule="evenodd" clip-rule="evenodd" d="M10 17.5C14.1421 17.5 17.5 14.1421 17.5 10C17.5 5.85786 14.1421 2.5 10 2.5C5.85786 2.5 2.5 5.85786 2.5 10C2.5 14.1421 5.85786 17.5 10 17.5ZM8.82146 7.64298C8.49602 7.31754 7.96838 7.31754 7.64295 7.64298C7.31751 7.96841 7.31751 8.49605 7.64295 8.82149L8.82146 10L7.64295 11.1785C7.31751 11.5039 7.31751 12.0316 7.64295 12.357C7.96838 12.6825 8.49602 12.6825 8.82146 12.357L9.99997 11.1785L11.1785 12.357C11.5039 12.6825 12.0316 12.6825 12.357 12.357C12.6824 12.0316 12.6824 11.5039 12.357 11.1785L11.1785 10L12.357 8.82149C12.6824 8.49605 12.6824 7.96841 12.357 7.64298C12.0316 7.31754 11.5039 7.31754 11.1785 7.64298L9.99997 8.82149L8.82146 7.64298Z" fill="#979797"/>
</svg>
