<svg width="16" height="16" viewBox="0 0 16 16" fill="none" xmlns="http://www.w3.org/2000/svg">
<path d="M8.00001 1.06689C6.27735 1.06689 4.70552 1.6993 3.49272 2.73877L5.00626 4.25231C5.8276 3.59578 6.86668 3.20023 8.00001 3.20023C9.13335 3.20023 10.1724 3.59578 10.9938 4.25231L12.5073 2.73877C11.2945 1.6993 9.72268 1.06689 8.00001 1.06689ZM2.73856 3.49294C1.69909 4.70574 1.06668 6.27756 1.06668 8.00023C1.06668 11.8296 4.17068 14.9336 8.00001 14.9336C11.8293 14.9336 14.9333 11.8296 14.9333 8.00023C14.9333 6.27756 14.3009 4.70574 13.2615 3.49294L11.7479 5.00648C12.4045 5.82781 12.8 6.86689 12.8 8.00023C12.8 8.77521 12.6126 9.50535 12.2865 10.1534L9.60314 7.47002C9.60314 7.47002 8.52108 5.86689 8.53335 5.86689V9.06689L11.1146 11.6481C10.276 12.3649 9.18987 12.8002 8.00001 12.8002C6.81016 12.8002 5.72407 12.3649 4.88543 11.6481L7.46668 9.06689V5.86689C7.47895 5.86689 6.39689 7.47002 6.39689 7.47002L3.71356 10.1534C3.38746 9.50535 3.20001 8.77521 3.20001 8.00023C3.20001 6.86689 3.59556 5.82781 4.2521 5.00648L2.73856 3.49294Z" fill="white"/>
</svg>
