<svg width="20" height="20" viewBox="0 0 20 20" fill="none" xmlns="http://www.w3.org/2000/svg">
<path d="M16.7228 7.06408C17.1326 7.79787 17.1864 8.74302 16.973 9.8371C16.3558 13.0083 14.243 14.1038 11.5447 14.1038H11.128C10.7986 14.1038 10.518 14.3443 10.4663 14.6699L10.4325 14.8538L9.908 18.181L9.88084 18.3227C9.82917 18.6483 9.54858 18.8883 9.21917 18.8883H6.43359C6.18638 18.8883 5.99749 18.6677 6.03582 18.4238L6.18173 17.4993H7.44725L8.23836 12.4821H9.393C13.2913 12.4821 15.8508 10.6467 16.7228 7.06408ZM14.2555 2.82255C14.8911 3.54631 15.0757 4.33177 14.8831 5.56038C14.8671 5.66263 14.85 5.76094 14.8311 5.85979C14.2184 9.0041 12.2573 10.3988 9.03475 10.3988H7.46419C6.93873 10.3988 6.4864 10.7433 6.33644 11.2336L6.32428 11.2317L5.54974 16.1438H2.60141C2.57493 16.1438 2.55499 16.1205 2.55914 16.094L4.72421 2.33462C4.78479 1.94965 5.11654 1.66602 5.50625 1.66602H10.4858C12.3048 1.66602 13.5832 2.05659 14.2555 2.82255Z" fill="white"/>
</svg>
