<svg width="59" height="66" viewBox="0 0 59 66" fill="none" xmlns="http://www.w3.org/2000/svg">
<path d="M29.5 2.65213L23.087 0.0869141L10.2115 4.4565L2.26923 32.7174L0 60.9782L10.2115 65.5L12.4808 60.9782L10.2115 53.0652L14.75 37.2391L12.4808 25.9347L19.2885 19.1521L15.8846 27.0652L18.1538 37.2391L17.0192 42.8913L29.5 53.0652L41.9808 42.8913L40.8462 37.2391L43.1154 27.0652L39.7115 19.1521L46.5192 25.9347L44.25 37.2391L48.7885 53.0652L46.5192 60.9782L48.7885 65.5L59 60.9782L56.7308 32.7174L48.7885 4.4565L35.913 0.0869141L29.5 2.65213Z" fill="#FF5733"/>
</svg>
