<svg width="14" height="14" viewBox="0 0 14 14" fill="none" xmlns="http://www.w3.org/2000/svg">
<g clip-path="url(#clip0_2707_1033)">
<path d="M12.7707 9.89367C12.538 10.1876 11.9678 10.3973 11.9678 10.3973L7.72635 11.9226V10.7977L10.8478 9.68421C11.202 9.55716 11.2564 9.37754 10.9685 9.28326C10.6811 9.1887 10.1607 9.21578 9.80622 9.34342L7.72635 10.0768V8.90938L7.84619 8.86871C7.84619 8.86871 8.44724 8.65578 9.29231 8.56204C10.1374 8.46884 11.1722 8.57477 11.9846 8.88312C12.9001 9.17273 13.0032 9.59967 12.7707 9.89367ZM8.13006 7.97821V5.1015C8.13006 4.76365 8.06784 4.45262 7.75121 4.36458C7.50876 4.28682 7.35832 4.51223 7.35832 4.84981V12.0537L5.41779 11.4371V2.84766C6.24287 3.001 7.44491 3.3635 8.09113 3.5816C9.73452 4.14648 10.2917 4.84953 10.2917 6.43365C10.2917 7.97767 9.33969 8.56285 8.13006 7.97821ZM1.85715 10.6801C0.917329 10.4152 0.760919 9.86302 1.18929 9.54498C1.58519 9.25131 2.25846 9.0302 2.25846 9.0302L5.04083 8.03967V9.16894L3.03861 9.88631C2.68493 10.0134 2.63054 10.1933 2.91792 10.2876C3.20558 10.3819 3.72622 10.3551 4.08045 10.2277L5.04083 9.87873V10.889C4.97994 10.8998 4.91202 10.9107 4.84924 10.9213C3.88859 11.0784 2.86543 11.0129 1.85715 10.6801Z" fill="white"/>
</g>
<defs>
<clipPath id="clip0_2707_1033">
<rect width="12.9968" height="12.9968" fill="white" transform="translate(0.541016 0.680664)"/>
</clipPath>
</defs>
</svg>
