<svg width="14" height="14" viewBox="0 0 14 14" fill="none" xmlns="http://www.w3.org/2000/svg">
<path d="M0.25 1.74632C0.25 0.919922 0.919465 0.25 1.74632 0.25H12.2537C13.0801 0.25 13.75 0.919465 13.75 1.74632V12.2537C13.75 13.0801 13.0806 13.75 12.2537 13.75H1.74632C0.919922 13.75 0.25 13.0806 0.25 12.2537V1.74632ZM4.12274 10.1592C3.45493 10.6145 3.87614 11.5 4.68441 11.5H9.46883C10.2771 11.5 10.6983 10.6145 10.0305 10.1592C9.18896 9.58544 8.17198 9.25 7.07665 9.25C5.98128 9.25 4.96427 9.58545 4.12274 10.1592ZM7 7.75C8.44975 7.75 9.625 6.57475 9.625 5.125C9.625 3.67525 8.44975 2.5 7 2.5C5.55025 2.5 4.375 3.67525 4.375 5.125C4.375 6.57475 5.55025 7.75 7 7.75Z" fill="white"/>
</svg>
