<svg width="18" height="16" viewBox="0 0 18 16" fill="none" xmlns="http://www.w3.org/2000/svg">
<g clip-path="url(#clip0_4025_934)">
<path fill-rule="evenodd" clip-rule="evenodd" d="M12.75 6.57576V2C12.75 1.17157 12.0784 0.5 11.25 0.5H6.75C5.92157 0.5 5.25 1.17157 5.25 2V6.57576C6.20289 5.60335 7.53098 5 9 5C10.469 5 11.7971 5.60335 12.75 6.57576Z" fill="#979797"/>
<path opacity="0.4" d="M9 15.5C11.8995 15.5 14.25 13.1495 14.25 10.25C14.25 7.35051 11.8995 5 9 5C6.10051 5 3.75 7.35051 3.75 10.25C3.75 13.1495 6.10051 15.5 9 15.5Z" fill="#979797"/>
<path fill-rule="evenodd" clip-rule="evenodd" d="M16.8977 6.10225C17.1174 6.32192 17.1174 6.67808 16.8977 6.89775L16.1477 7.64775C15.9281 7.86742 15.5719 7.86742 15.3523 7.64775C15.1326 7.42808 15.1326 7.07192 15.3523 6.85225L16.1023 6.10225C16.3219 5.88258 16.6781 5.88258 16.8977 6.10225Z" fill="#979797"/>
<path fill-rule="evenodd" clip-rule="evenodd" d="M15.3523 12.8523C15.5719 12.6326 15.9281 12.6326 16.1477 12.8523L16.8977 13.6023C17.1174 13.8219 17.1174 14.1781 16.8977 14.3977C16.6781 14.6174 16.3219 14.6174 16.1023 14.3977L15.3523 13.6477C15.1326 13.4281 15.1326 13.0719 15.3523 12.8523Z" fill="#979797"/>
<path fill-rule="evenodd" clip-rule="evenodd" d="M1.10225 6.10225C0.882583 6.32192 0.882583 6.67808 1.10225 6.89775L1.85225 7.64775C2.07192 7.86742 2.42808 7.86742 2.64775 7.64775C2.86742 7.42808 2.86742 7.07192 2.64775 6.85225L1.89775 6.10225C1.67808 5.88258 1.32192 5.88258 1.10225 6.10225Z" fill="#979797"/>
<path fill-rule="evenodd" clip-rule="evenodd" d="M2.64775 12.8523C2.42808 12.6326 2.07192 12.6326 1.85225 12.8523L1.10225 13.6023C0.882583 13.8219 0.882583 14.1781 1.10225 14.3977C1.32192 14.6174 1.67808 14.6174 1.89775 14.3977L2.64775 13.6477C2.86742 13.4281 2.86742 13.0719 2.64775 12.8523Z" fill="#979797"/>
<path fill-rule="evenodd" clip-rule="evenodd" d="M9.29585 7.52151C9.46169 7.624 9.56263 7.80505 9.56263 8V11.9375H9.75013C10.0608 11.9375 10.3126 12.1893 10.3126 12.5C10.3126 12.8107 10.0608 13.0625 9.75013 13.0625H8.25013C7.93947 13.0625 7.68763 12.8107 7.68763 12.5C7.68763 12.1893 7.93947 11.9375 8.25013 11.9375H8.43763V8.90539C8.17378 8.99904 7.87542 8.88338 7.74701 8.62656C7.60808 8.3487 7.72071 8.01082 7.99857 7.87189L8.74857 7.49689C8.92294 7.4097 9.13002 7.41902 9.29585 7.52151Z" fill="#979797"/>
</g>
<defs>
<clipPath id="clip0_4025_934">
<rect width="18" height="16" fill="white"/>
</clipPath>
</defs>
</svg>
