<svg width="56" height="56" viewBox="0 0 56 56" fill="none" xmlns="http://www.w3.org/2000/svg">
<path d="M0 2.15385C0 0.964311 0.96431 0 2.15385 0H28C43.464 0 56 12.536 56 28C56 43.464 43.464 56 28 56H2.15385C0.964311 56 0 55.0357 0 53.8462V2.15385Z" fill="#FF5733"/>
<g clip-path="url(#clip0_1225_5769)">
<g clip-path="url(#clip1_1225_5769)">
<path d="M31.646 30.5835H30.8231L30.5314 30.3022C31.7814 28.8439 32.4272 26.8543 32.0731 24.7397C31.5835 21.8439 29.1668 19.5314 26.2502 19.1772C21.8439 18.6356 18.1356 22.3439 18.6772 26.7502C19.0314 29.6668 21.3439 32.0835 24.2397 32.5731C26.3543 32.9272 28.3439 32.2814 29.8022 31.0314L30.0835 31.3231V32.146L34.5106 36.5731C34.9377 37.0002 35.6356 37.0002 36.0627 36.5731C36.4897 36.146 36.4897 35.4481 36.0627 35.021L31.646 30.5835ZM25.396 30.5835C22.8022 30.5835 20.7085 28.4897 20.7085 25.896C20.7085 23.3022 22.8022 21.2085 25.396 21.2085C27.9897 21.2085 30.0835 23.3022 30.0835 25.896C30.0835 28.4897 27.9897 30.5835 25.396 30.5835Z" fill="white"/>
</g>
</g>
<defs>
<clipPath id="clip0_1225_5769">
<rect width="25" height="23" fill="white" transform="translate(15.5 16.5)"/>
</clipPath>
<clipPath id="clip1_1225_5769">
<rect width="25" height="25" fill="white" transform="translate(15.5 16.5)"/>
</clipPath>
</defs>
</svg>
