<svg width="18" height="18" viewBox="0 0 18 18" fill="none" xmlns="http://www.w3.org/2000/svg">
<path d="M17.1296 16.1721L14.2651 13.3715L14.198 13.2694C14.0731 13.1451 13.9025 13.0751 13.7243 13.0751C13.5461 13.0751 13.3754 13.1451 13.2506 13.2694C10.8162 15.5027 7.06511 15.6241 4.48499 13.5531C1.90488 11.482 1.29638 7.8611 3.06306 5.09177C4.82974 2.32244 8.42338 1.264 11.4607 2.61841C14.498 3.97281 16.0365 7.31979 15.0558 10.4396C14.9852 10.665 15.0429 10.9101 15.2073 11.0826C15.3716 11.2551 15.6176 11.3288 15.8525 11.2759C16.0875 11.223 16.2757 11.0515 16.3464 10.8262C17.5187 7.12383 15.7481 3.13959 12.1801 1.45084C8.61207 -0.237906 4.31736 0.875646 2.0742 4.07114C-0.168952 7.26663 0.312639 11.5851 3.20743 14.2329C6.10223 16.8807 10.5415 17.0632 13.6534 14.6624L16.1897 17.1421C16.4516 17.397 16.8751 17.397 17.1371 17.1421C17.3987 16.8835 17.3987 16.4671 17.1371 16.2085L17.1296 16.1721Z" fill="black"/>
</svg>
