<svg width="17" height="16" viewBox="0 0 17 16" fill="none" xmlns="http://www.w3.org/2000/svg">
<g clip-path="url(#clip0_2719_3908)">
<g clip-path="url(#clip1_2719_3908)">
<path d="M11.0985 9.72233H10.5499L10.3554 9.53483C11.1887 8.56261 11.6193 7.23622 11.3832 5.8265C11.0568 3.89594 9.44569 2.35428 7.50125 2.11816C4.56375 1.75705 2.09153 4.22928 2.45264 7.16678C2.68875 9.11122 4.23041 10.7223 6.16097 11.0487C7.57069 11.2848 8.89708 10.8543 9.8693 10.0209L10.0568 10.2154V10.764L13.0082 13.7154C13.2929 14.0001 13.7582 14.0001 14.0429 13.7154C14.3276 13.4307 14.3276 12.9654 14.0429 12.6807L11.0985 9.72233ZM6.9318 9.72233C5.20264 9.72233 3.8068 8.3265 3.8068 6.59733C3.8068 4.86816 5.20264 3.47233 6.9318 3.47233C8.66097 3.47233 10.0568 4.86816 10.0568 6.59733C10.0568 8.3265 8.66097 9.72233 6.9318 9.72233Z" fill="white"/>
</g>
</g>
<defs>
<clipPath id="clip0_2719_3908">
<rect width="16.6667" height="15.3333" fill="white" transform="translate(0.33374 0.333496)"/>
</clipPath>
<clipPath id="clip1_2719_3908">
<rect width="16.6667" height="16.6667" fill="white" transform="translate(0.33374 0.333496)"/>
</clipPath>
</defs>
</svg>
