<svg width="14" height="16" viewBox="0 0 14 16" fill="none" xmlns="http://www.w3.org/2000/svg">
<path d="M5.283 1.32503C5.43839 0.938111 5.73536 0.594748 6.14959 0.547162C6.71069 0.482702 7.28082 0.481187 7.84884 0.545601C8.26346 0.592619 8.56065 0.93641 8.71597 1.3237C8.95733 1.9255 9.39466 2.4538 9.99977 2.80315C10.6048 3.15248 11.281 3.26709 11.9228 3.17522C12.3359 3.11609 12.7823 3.20155 13.0303 3.53713C13.3701 3.99685 13.6539 4.49135 13.8786 5.00951C14.0445 5.39203 13.8956 5.82089 13.6382 6.14891C13.2383 6.65864 12.9998 7.30111 12.9998 7.99928C12.9998 8.6975 13.2383 9.33999 13.6382 9.84972C13.8961 10.1783 14.0451 10.6081 13.878 10.9909C13.7659 11.2477 13.6383 11.5009 13.4949 11.7493C13.3515 11.9977 13.196 12.2348 13.0297 12.4602C12.7817 12.7963 12.335 12.8822 11.9215 12.8232C11.2801 12.7317 10.6044 12.8464 9.99977 13.1954C9.3951 13.5445 8.95797 14.0724 8.71649 14.6736C8.56111 15.0605 8.26413 15.4039 7.84992 15.4514C7.28885 15.5159 6.71873 15.5174 6.1507 15.453C5.73606 15.406 5.43885 15.0622 5.28351 14.6748C5.04215 14.0731 4.60482 13.5448 3.99975 13.1954C3.3947 12.8461 2.71854 12.7315 2.07671 12.8234C1.6636 12.8825 1.21722 12.7971 0.969172 12.4615C0.629387 12.0017 0.345648 11.5072 0.120932 10.9891C-0.0449716 10.6066 0.103922 10.1777 0.361313 9.84964C0.761267 9.33991 0.999758 8.69743 0.999758 7.99928C0.999758 7.30109 0.761232 6.65859 0.361225 6.14883C0.103394 5.82026 -0.0455653 5.39049 0.121489 5.0077C0.233566 4.75088 0.361154 4.4977 0.504563 4.2493C0.647975 4.0009 0.803449 3.76382 0.969818 3.53835C1.2178 3.20228 1.66447 3.11639 2.07794 3.1754C2.71941 3.26694 3.39509 3.15225 3.99975 2.80315C4.60439 2.45406 5.04154 1.92628 5.283 1.32503ZM6.99977 10.2493C8.24237 10.2493 9.24977 9.24195 9.24977 7.99928C9.24977 6.75668 8.24237 5.7493 6.99977 5.7493C5.7571 5.7493 4.74975 6.75668 4.74975 7.99928C4.74975 9.24195 5.7571 10.2493 6.99977 10.2493Z" fill="white"/>
</svg>
