<svg width="59" height="43" viewBox="0 0 59 43" fill="none" xmlns="http://www.w3.org/2000/svg">
<path d="M0 0.274414H53.3353C56.2232 0.274414 58.5643 2.6155 58.5643 5.50337V36.8771C58.5643 39.7649 56.2232 42.106 53.3353 42.106H0V0.274414Z" fill="#9B9B9B"/>
<path d="M12.9732 17.6352L15.1689 19.099L17.3579 16.0344C17.5258 15.7994 17.8524 15.745 18.0873 15.9129C18.1343 15.9464 18.1753 15.9875 18.2089 16.0344L20.3979 19.099L22.5937 17.6352C22.834 17.475 23.1586 17.5399 23.3188 17.7802C23.3877 17.8835 23.4175 18.008 23.403 18.1313L22.5438 25.4348C22.5128 25.6982 22.2896 25.8967 22.0245 25.8967H13.5423C13.2772 25.8967 13.054 25.6982 13.023 25.4348L12.1638 18.1313C12.13 17.8445 12.3352 17.5847 12.622 17.5509C12.7453 17.5364 12.8698 17.5663 12.9732 17.6352ZM17.7834 22.7593C18.361 22.7593 18.8292 22.2911 18.8292 21.7135C18.8292 21.1359 18.361 20.6677 17.7834 20.6677C17.2058 20.6677 16.7376 21.1359 16.7376 21.7135C16.7376 22.2911 17.2058 22.7593 17.7834 22.7593Z" fill="white"/>
</svg>
