<svg width="16" height="16" viewBox="0 0 16 16" fill="none" xmlns="http://www.w3.org/2000/svg">
<path d="M13.3459 13.2604C13.093 13.5173 13.2644 14 13.6248 14C13.832 14 14 14.168 14 14.3752V14.75C14 15.1642 13.6642 15.5 13.25 15.5H8C3.85786 15.5 0.5 12.1421 0.5 8C0.5 3.85786 3.85786 0.5 8 0.5C12.1421 0.5 15.5 3.85786 15.5 8C15.5 10.0493 14.678 11.9067 13.3459 13.2604ZM8 6.5C8.82845 6.5 9.5 5.82843 9.5 5C9.5 4.17157 8.82845 3.5 8 3.5C7.17155 3.5 6.5 4.17157 6.5 5C6.5 5.82843 7.17155 6.5 8 6.5ZM5 9.5C5.82843 9.5 6.5 8.82845 6.5 8C6.5 7.17155 5.82843 6.5 5 6.5C4.17157 6.5 3.5 7.17155 3.5 8C3.5 8.82845 4.17157 9.5 5 9.5ZM11 9.5C11.8285 9.5 12.5 8.82845 12.5 8C12.5 7.17155 11.8285 6.5 11 6.5C10.1715 6.5 9.5 7.17155 9.5 8C9.5 8.82845 10.1715 9.5 11 9.5ZM8 12.5C8.82845 12.5 9.5 11.8285 9.5 11C9.5 10.1715 8.82845 9.5 8 9.5C7.17155 9.5 6.5 10.1715 6.5 11C6.5 11.8285 7.17155 12.5 8 12.5Z" fill="white"/>
</svg>
