<svg width="22" height="22" viewBox="0 0 22 22" fill="none" xmlns="http://www.w3.org/2000/svg">
<path d="M11.3858 19.9582C6.5506 19.9582 2.63086 16.0384 2.63086 11.2032C2.63086 6.36798 6.5506 2.44824 11.3858 2.44824C16.221 2.44824 20.1408 6.36798 20.1408 11.2032C20.1408 16.0384 16.221 19.9582 11.3858 19.9582ZM11.3858 18.2072C15.2541 18.2072 18.3898 15.0714 18.3898 11.2032C18.3898 7.33503 15.2541 4.19924 11.3858 4.19924C7.51764 4.19924 4.38186 7.33503 4.38186 11.2032C4.38186 15.0714 7.51764 18.2072 11.3858 18.2072ZM10.5126 14.7052L6.79822 10.9908L8.03637 9.75261L10.5126 12.229L15.4652 7.27637L16.7034 8.51451L10.5126 14.7052Z" fill="#FF5733"/>
</svg>
