<svg width="18" height="18" viewBox="0 0 18 18" fill="none" xmlns="http://www.w3.org/2000/svg">
<path d="M9 1.5C11.3411 1.5 13.4317 2.57266 14.8071 4.25331L10.0606 9L14.8071 13.7467C13.4317 15.4273 11.3411 16.5 9 16.5C4.85786 16.5 1.5 13.1421 1.5 9C1.5 4.85786 4.85786 1.5 9 1.5ZM9 3C5.68629 3 3 5.68629 3 9C3 12.3137 5.68629 15 9 15C10.2924 15 11.5161 14.5898 12.523 13.858L12.6788 13.74L7.93943 9L12.6788 4.25925L12.523 4.14196C11.5753 3.45323 10.4356 3.04937 9.22732 3.00424L9 3ZM9 3.75C9.6213 3.75 10.125 4.25368 10.125 4.875C10.125 5.49632 9.6213 6 9 6C8.3787 6 7.875 5.49632 7.875 4.875C7.875 4.25368 8.3787 3.75 9 3.75Z" fill="white"/>
</svg>
