<svg width="18" height="18" viewBox="0 0 18 18" fill="none" xmlns="http://www.w3.org/2000/svg">
<path d="M12.75 3C15.2353 3 17.25 5.01472 17.25 7.5V10.5C17.25 12.9853 15.2353 15 12.75 15H5.25C2.76472 15 0.75 12.9853 0.75 10.5V7.5C0.75 5.01472 2.76472 3 5.25 3H12.75ZM12.75 4.5H5.25C3.64335 4.5 2.33169 5.76298 2.25367 7.35027L2.25 7.5V10.5C2.25 12.1067 3.51298 13.4183 5.10027 13.4963L5.25 13.5H12.75C14.3567 13.5 15.6683 12.237 15.7463 10.6497L15.75 10.5V7.5C15.75 5.89335 14.487 4.58169 12.8997 4.50368L12.75 4.5ZM7.5 6.75V8.25H9V9.75H7.49925L7.5 11.25H6L5.99925 9.75H4.5V8.25H6V6.75H7.5ZM13.5 9.75V11.25H12V9.75H13.5ZM12 6.75V8.25H10.5V6.75H12Z" fill="white"/>
</svg>
