<svg width="16" height="16" viewBox="0 0 16 16" fill="none" xmlns="http://www.w3.org/2000/svg">
<path d="M8 6.5C9.65682 6.5 11 5.15685 11 3.5C11 1.84314 9.65682 0.5 8 0.5C6.34314 0.5 5 1.84314 5 3.5C5 5.15685 6.34314 6.5 8 6.5ZM3.125 8.75C4.16053 8.75 5 7.91052 5 6.875C5 5.83947 4.16053 5 3.125 5C2.08947 5 1.25 5.83947 1.25 6.875C1.25 7.91052 2.08947 8.75 3.125 8.75ZM14.75 6.875C14.75 7.91052 13.9105 8.75 12.875 8.75C11.8395 8.75 11 7.91052 11 6.875C11 5.83947 11.8395 5 12.875 5C13.9105 5 14.75 5.83947 14.75 6.875ZM8 7.25C10.071 7.25 11.75 8.92895 11.75 11V14.5C11.75 15.0523 11.3023 15.5 10.75 15.5H5.25C4.69771 15.5 4.25 15.0523 4.25 14.5V11C4.25 8.92895 5.92893 7.25 8 7.25ZM2.75 10.9999C2.75 10.5249 2.81308 10.0646 2.93133 9.62699C2.94732 9.56783 2.90003 9.50997 2.83898 9.5153C1.52377 9.6578 0.5 10.7718 0.5 12.1249V14.4999C0.5 15.0522 0.947715 15.4999 1.5 15.4999H1.75C2.30228 15.4999 2.75 15.0522 2.75 14.4999V10.9999ZM14.5 15.4999C15.0523 15.4999 15.5 15.0522 15.5 14.4999V12.1249C15.5 11.2289 15.0511 10.4377 14.366 9.96394C13.7954 9.56938 13.2376 10.2166 13.2492 10.9102C13.2497 10.94 13.25 10.9699 13.25 10.9999V14.4999C13.25 15.0522 13.6977 15.4999 14.25 15.4999H14.5Z" fill="white"/>
</svg>
