<svg width="18" height="18" viewBox="0 0 18 18" fill="none" xmlns="http://www.w3.org/2000/svg">
<path d="M9 5.25075C12.3137 5.25075 15 7.93703 15 11.2508C15 14.5645 12.3137 17.2508 9 17.2508C5.68629 17.2508 3 14.5645 3 11.2508C3 7.93703 5.68629 5.25075 9 5.25075ZM9 6.75075C6.51472 6.75075 4.5 8.76548 4.5 11.2508C4.5 13.736 6.51472 15.7508 9 15.7508C11.4853 15.7508 13.5 13.736 13.5 11.2508C13.5 8.76548 11.4853 6.75075 9 6.75075ZM9 7.87576L9.99188 9.88553L12.2099 10.2078L10.6049 11.7722L10.9838 13.9812L9 12.9383L7.01623 13.9812L7.39509 11.7722L5.79019 10.2078L8.00812 9.88553L9 7.87576ZM13.5 1.50075V3.75075L12.4775 4.60392C11.6479 4.16903 10.7269 3.88489 9.75082 3.78787L9.75 1.5L13.5 1.50075ZM8.25 1.5L8.24977 3.7878C7.2738 3.88473 6.35284 4.16877 5.52331 4.60353L4.5 3.75075V1.50075L8.25 1.5Z" fill="white"/>
</svg>
