<svg width="14" height="14" viewBox="0 0 14 14" fill="none" xmlns="http://www.w3.org/2000/svg">
<path d="M7.00016 7.34204L9.47501 9.81689L8.65006 10.6418L7.5835 9.57574V12.8337H6.41683V9.57458L5.35024 10.6418L4.52529 9.81689L7.00016 7.34204ZM7.00016 1.16699C9.09631 1.16699 10.8236 2.74643 11.0567 4.78013C12.4169 5.15206 13.4168 6.39693 13.4168 7.87533C13.4168 9.54879 12.1356 10.923 10.5005 11.0706L10.5002 9.91699C10.5002 7.984 8.93315 6.41699 7.00016 6.41699C5.1111 6.41699 3.57158 7.91359 3.50258 9.7858L3.50016 9.91699L3.50039 11.0706C1.86506 10.9234 0.583496 9.54903 0.583496 7.87533C0.583496 6.39693 1.58347 5.15206 2.94394 4.78022C3.17677 2.74643 4.90402 1.16699 7.00016 1.16699Z" fill="#FF5733"/>
</svg>
