<svg width="20" height="20" viewBox="0 0 20 20" fill="none" xmlns="http://www.w3.org/2000/svg">
<path d="M1.91235 2.54977C1.80595 2.41737 1.62675 2.36617 1.46755 2.42257C1.30715 2.47857 1.19995 2.62977 1.19995 2.79977V9.99977C1.19995 10.0926 1.23235 10.1826 1.29115 10.2542L6.89115 17.0542C6.96715 17.1462 7.08035 17.1998 7.19995 17.1998H12.8C12.9536 17.1998 13.094 17.1114 13.1604 16.9734C13.2272 16.8346 13.2084 16.6702 13.112 16.5498L1.91235 2.54977ZM18.5344 2.82337C18.376 2.76497 18.1976 2.81537 18.0904 2.94697L10.8904 11.747C10.7924 11.8666 10.7724 12.0318 10.8384 12.1718C10.9048 12.3106 11.0456 12.3998 11.2 12.3998H16.8C16.9216 12.3998 17.0364 12.3446 17.1124 12.2498L18.7124 10.2498C18.7691 10.1786 18.8 10.091 18.8 9.99977V3.19977C18.8 3.03057 18.6936 2.87977 18.5344 2.82337Z" fill="white"/>
</svg>
