<svg width="17" height="14" viewBox="0 0 17 14" fill="none" xmlns="http://www.w3.org/2000/svg">
<path d="M15.5039 1.5C15.5039 2.05228 15.0562 2.5 14.5039 2.5H10.2539C7.76865 2.5 5.75391 4.51472 5.75391 7.00001C5.75391 9.48528 7.76865 11.5 10.2539 11.5H14.5039C15.0562 11.5 15.5039 11.9477 15.5039 12.5V13C15.5039 13.4142 15.1681 13.75 14.7539 13.75H1.25391C0.839696 13.75 0.503906 13.4142 0.503906 13V1C0.503906 0.585782 0.839696 0.25 1.25391 0.25H14.7539C15.1681 0.25 15.5039 0.585782 15.5039 1V1.5ZM10.2539 4H15.2539C15.8062 4 16.2539 4.44772 16.2539 5V9.00001C16.2539 9.55229 15.8062 10 15.2539 10H10.2539C8.59702 10 7.25392 8.65683 7.25392 7.00001C7.25392 5.34314 8.59702 4 10.2539 4ZM11.0039 6.25001C10.5897 6.25001 10.2539 6.58579 10.2539 7.00001C10.2539 7.41422 10.5897 7.75001 11.0039 7.75001H11.7539C12.1681 7.75001 12.5039 7.41422 12.5039 7.00001C12.5039 6.58579 12.1681 6.25001 11.7539 6.25001H11.0039Z" fill="white"/>
</svg>
