<svg width="8" height="8" viewBox="0 0 8 8" fill="none" xmlns="http://www.w3.org/2000/svg">
<path d="M0.935257 1.73425L2.33502 2.66742L3.73043 0.713831C3.83743 0.564028 4.04563 0.529331 4.19543 0.636331C4.22537 0.657711 4.25153 0.683898 4.27293 0.713831L5.66837 2.66742L7.0681 1.73425C7.2213 1.63213 7.42823 1.67352 7.53037 1.8267C7.57427 1.89257 7.5933 1.97192 7.58407 2.05054L7.03633 6.70636C7.01657 6.87423 6.8743 7.00076 6.70527 7.00076H1.2981C1.12907 7.00076 0.986801 6.87423 0.967051 6.70636L0.419307 2.05054C0.397797 1.86771 0.528577 1.70206 0.711411 1.68055C0.790037 1.6713 0.869387 1.69033 0.935257 1.73425ZM4.0017 5.00076C4.36987 5.00076 4.66837 4.7023 4.66837 4.3341C4.66837 3.9659 4.36987 3.66743 4.0017 3.66743C3.6335 3.66743 3.33503 3.9659 3.33503 4.3341C3.33503 4.7023 3.6335 5.00076 4.0017 5.00076Z" fill="#C28C30"/>
</svg>
