<svg width="14" height="14" viewBox="0 0 14 14" fill="none" xmlns="http://www.w3.org/2000/svg">
<path d="M3.24177 11.2554C4.19352 12.0894 5.44175 12.5944 6.80598 12.5944C8.17152 12.5944 9.4184 12.0894 10.372 11.2554C11.219 10.3926 8.42425 7.32523 6.80598 6.10315C5.18949 7.32523 2.39291 10.3926 3.24177 11.2554ZM8.27804 4.7543C9.40622 6.09053 11.6554 9.40836 11.02 10.5812C11.7709 9.65205 12.2213 8.47015 12.2213 7.18081C12.2213 5.67355 11.6053 4.30979 10.6103 3.32871C10.6103 3.32871 10.5981 3.31878 10.5732 3.30975C10.5448 3.29983 10.5047 3.28945 10.4464 3.28945C10.1793 3.28945 9.55064 3.4853 8.27804 4.7543ZM3.0396 3.30975C3.01388 3.31878 3.00259 3.32826 3.00079 3.32871C2.00662 4.30979 1.39062 5.67355 1.39062 7.18081C1.39062 8.46879 1.841 9.65069 2.59148 10.5803C1.95924 9.40473 4.20661 6.08963 5.33525 4.7543C4.06264 3.48485 3.43266 3.2899 3.1664 3.2899C3.10729 3.2899 3.06577 3.29937 3.0396 3.31066V3.30975ZM6.80598 3.36617C6.80598 3.36617 5.47695 2.58861 4.43901 2.5516C4.03151 2.53671 3.78285 2.68473 3.75262 2.70459C4.72061 2.0552 5.7495 1.76367 6.79873 1.76367H6.80598C7.85927 1.76367 8.88412 2.0552 9.85932 2.70459C9.82861 2.68383 9.58178 2.53671 9.17336 2.5516C8.13545 2.58861 6.80598 3.36346 6.80598 3.36346V3.36617Z" fill="white"/>
</svg>
