<svg width="20" height="20" viewBox="0 0 20 20" fill="none" xmlns="http://www.w3.org/2000/svg">
<path d="M16.3396 5.82967C16.2761 5.58144 16.0965 5.39416 15.8908 5.33638C15.5254 5.2345 13.7513 5.00065 10.0013 5.00065C6.2513 5.00065 4.47759 5.23459 4.11069 5.33668C3.90695 5.39334 3.7274 5.58059 3.66307 5.82967C3.5724 6.18334 3.33464 7.66394 3.33464 10.0007C3.33464 12.3373 3.5724 13.818 3.66332 14.1726C3.72654 14.4199 3.90612 14.6072 4.11091 14.6646C4.47759 14.7667 6.2513 15.0007 10.0013 15.0007C13.7513 15.0007 15.5254 14.7668 15.8919 14.6646C16.0957 14.608 16.2752 14.4207 16.3396 14.1716C16.4302 13.818 16.668 12.334 16.668 10.0007C16.668 7.66732 16.4302 6.18334 16.3396 5.82967ZM17.954 5.4158C18.3347 6.90065 18.3347 10.0007 18.3347 10.0007C18.3347 10.0007 18.3347 13.1007 17.954 14.5855C17.7419 15.4067 17.123 16.0521 16.3385 16.2703C14.9147 16.6673 10.0013 16.6673 10.0013 16.6673C10.0013 16.6673 5.09079 16.6673 3.66413 16.2703C2.8767 16.0491 2.25781 15.4037 2.0486 14.5855C1.66797 13.1007 1.66797 10.0007 1.66797 10.0007C1.66797 10.0007 1.66797 6.90065 2.0486 5.4158C2.26071 4.59459 2.87961 3.94913 3.66413 3.73095C5.09079 3.33398 10.0013 3.33398 10.0013 3.33398C10.0013 3.33398 14.9147 3.33398 16.3385 3.73095C17.1259 3.95217 17.7448 4.59762 17.954 5.4158ZM8.33465 12.9173V7.08398L13.3347 10.0007L8.33465 12.9173Z" fill="white"/>
</svg>
